<svg width="342.93298606951686" height="70.47861505421236" viewBox="0 0 342.93298606951686 70.47861505421236" class="css-1j8o68f"><defs id="SvgjsDefs1001"></defs><g id="SvgjsG1007" featurekey="symbolFeature-0" transform="matrix(0.7885619401931763,0,0,0.7885619401931763,-3.2065635835564503,-2.1542476826881716)" fill="#222831"><path xmlns="http://www.w3.org/2000/svg" d="M80.542,52.492V39l-2.847,1.099l-5.065-4.988l-4.201,2.772c-2.176-2.871-5.622-5.212-9.823-6.695  c3.108-2.867,5.07-6.958,5.07-11.51C63.676,11.033,56.644,4,48,4s-15.676,7.032-15.676,15.676c0,4.546,1.957,8.633,5.058,11.499  c-4.21,1.483-7.65,3.821-9.827,6.695l-4.184-2.761l-5.065,4.988L15.458,39v13.493c-2.891,0.782-5.051,3.765-5.051,7.322  s2.16,6.539,5.051,7.321v12.417L48,92.108l32.542-12.556V67.136c2.891-0.782,5.052-3.764,5.052-7.321  C85.593,56.256,83.433,53.274,80.542,52.492z M72.254,38.952l2.368,2.332l-14.203,5.48L72.254,38.952z M35.324,19.677  C35.324,12.687,41.01,7,48,7s12.676,5.687,12.676,12.676S54.99,32.353,48,32.353S35.324,26.667,35.324,19.677z M23.746,38.952  l11.835,7.812l-14.203-5.48L23.746,38.952z M13.408,59.814c0-2.498,1.593-4.529,3.551-4.529c1.958,0,3.552,2.032,3.552,4.529  c0,2.497-1.593,4.528-3.552,4.528C15,64.343,13.408,62.312,13.408,59.814z M46.5,88.314L18.458,77.495V67.144  c0.033-0.009,0.063-0.026,0.096-0.036c0.654-0.189,1.268-0.49,1.828-0.887c0.044-0.031,0.089-0.06,0.132-0.092  c0.264-0.197,0.513-0.416,0.749-0.653c0.044-0.044,0.087-0.09,0.13-0.136c0.233-0.248,0.455-0.511,0.655-0.794  c0.021-0.03,0.04-0.063,0.061-0.094c0.192-0.281,0.367-0.578,0.523-0.889c0.018-0.035,0.037-0.068,0.054-0.103  c0.155-0.32,0.286-0.657,0.399-1.004c0.021-0.065,0.043-0.13,0.063-0.197c0.104-0.346,0.188-0.703,0.247-1.069  c0.01-0.062,0.017-0.125,0.025-0.188c0.054-0.387,0.089-0.782,0.089-1.187s-0.036-0.799-0.089-1.187  c-0.009-0.063-0.015-0.126-0.025-0.188c-0.059-0.367-0.143-0.724-0.247-1.07c-0.02-0.066-0.042-0.131-0.063-0.197  c-0.113-0.346-0.244-0.683-0.398-1.003c-0.018-0.036-0.038-0.069-0.056-0.104c-0.156-0.311-0.33-0.606-0.521-0.887  c-0.021-0.032-0.041-0.065-0.063-0.097c-0.2-0.283-0.421-0.546-0.654-0.793c-0.043-0.046-0.086-0.092-0.131-0.137  c-0.235-0.237-0.484-0.456-0.748-0.652c-0.044-0.032-0.09-0.062-0.134-0.093c-0.559-0.396-1.172-0.697-1.826-0.886  c-0.033-0.01-0.063-0.028-0.097-0.037v-9.112L46.5,54.192V88.314z M30.063,39.527c2.162-2.77,5.841-4.951,10.357-6.138  c2.249,1.248,4.831,1.964,7.58,1.964s5.331-0.716,7.58-1.964c4.497,1.183,8.18,3.377,10.345,6.146L48,51.365L30.063,39.527z   M77.542,77.495L49.5,88.314V54.192l28.042-10.819v9.12c-2.891,0.782-5.052,3.764-5.052,7.322c0,3.558,2.161,6.539,5.052,7.321  V77.495z M79.042,64.343c-1.958,0-3.552-2.031-3.552-4.528c0-2.498,1.593-4.529,3.552-4.529s3.552,2.032,3.552,4.529  C82.593,62.312,81,64.343,79.042,64.343z"></path></g><g id="SvgjsG1008" featurekey="nameLeftFeature-0" transform="matrix(1.8295540809631348,0,0,1.8295540809631348,76.98427072433017,10.372344907223948)" fill="#222831"><path d="M9.3729 17.6612 c0.18644 0 0.32203 0.13592 0.32203 0.33915 l0 1.678 c0 0.16949 -0.13559 0.32186 -0.32203 0.32186 l-8.0169 0 c-0.16949 0 -0.25424 -0.13543 -0.25424 -0.30508 l0 -12.932 c0 -0.16949 0.13559 -0.32203 0.32203 -0.32203 l1.7627 0 c0.18644 0 0.33898 0.15254 0.33898 0.32203 l0 10.898 l5.8475 0 z M13.982918644067796 6.441000000000001 l-1.6778 0 c-0.18644 0 -0.32203 0.15254 -0.32203 0.32203 l0 12.898 c0 0.18644 0.15254 0.33881 0.33898 0.33881 l1.678 0 c0.16933 0 0.32186 -0.16933 0.32186 -0.33881 l0 -12.898 c0 -0.16949 -0.16949 -0.32203 -0.33898 -0.32203 z M26.846966101694914 6.441000000000001 c0.16949 0 0.32203 0.13592 0.32203 0.32237 l0 1.6949 c0 0.16933 -0.15254 0.32186 -0.32203 0.32186 l-3.8305 0 l0 10.881 c0 0.20339 -0.13559 0.33881 -0.32203 0.33881 l-1.2542 0 c-0.54237 0 -0.84746 -0.37288 -0.84746 -0.86441 l0 -10.356 l-3.8136 0 c-0.16949 0 -0.33898 -0.13559 -0.33898 -0.32203 l0 -1.678 c0 -0.18644 0.15254 -0.33898 0.33898 -0.33898 l10.068 0 z M37.79660338983051 8.78 l-6.1697 -0.00033103 l0 3.4068 l3.322 0 c0.18644 0 0.33898 0.15254 0.33898 0.33915 l0 1.6778 c0 0.20339 -0.13559 0.3222 -0.33898 0.3222 l-3.322 0 l0 3.1356 l6.1695 0 c0.18644 0 0.33881 0.15238 0.33881 0.33881 l0 1.6613 c0 0.18644 -0.15238 0.33881 -0.33881 0.33881 l-8.2542 0 c-0.18644 0 -0.33898 -0.15238 -0.33898 -0.33881 l0 -12.898 c0 -0.16949 0.13559 -0.32203 0.3222 -0.32203 l8.2712 0 c0.18644 0 0.33881 0.15254 0.33881 0.32203 l0 1.6949 c0 0.18644 -0.15238 0.32203 -0.33881 0.32203 z M50.71128813559322 19.61017 c0.13559 0.20339 0.034064 0.38983 -0.23712 0.38983 l-1.5763 0 c-0.47458 0 -0.88136 -0.44068 -1.0339 -0.69492 l-2.339 -3.5763 l-2.8475 0 l0 3.9322 c0 0.20339 -0.13559 0.33881 -0.32203 0.33881 l-1.7966 0 c-0.16949 0 -0.30508 -0.13543 -0.30508 -0.33881 l0 -12.898 c0 -0.16949 0.13559 -0.32203 0.32203 -0.32203 l5.4068 0 c2.7797 0 4.4915 2.5763 4.4915 4.6441 c0 1.6442 -0.98305 3.4576 -2.661 4.2373 z M42.67808813559322 8.78 l0.00033103 4.6102 l2.9659 0 c1.6102 0 2.3898 -1.1695 2.3898 -2.3559 c0 -1.1356 -0.79661 -2.2542 -2.3902 -2.2542 l-2.9659 0 z M65.62662711864407 19.62712 c0.10169 0.20339 0.034229 0.37271 -0.20305 0.37271 l-1.9831 0 c-0.16949 0 -0.27119 -0.08458 -0.33898 -0.22017 l-0.91525 -1.9322 l-6.5256 0 l-0.91525 1.9322 c-0.067797 0.13559 -0.18644 0.22017 -0.33898 0.22017 l-2 0 c-0.20339 0 -0.32203 -0.16933 -0.22034 -0.37271 l6.3898 -13.102 c0.067797 -0.11881 0.15238 -0.16966 0.23712 -0.16966 l0.20339 0 c0.10169 0 0.16949 0.050847 0.23729 0.16966 z M56.695127118644066 15.6441 l4.4576 0 l-2.2203 -4.7288 z M77.82993220338983 19.61017 c0.13559 0.20339 0.034064 0.38983 -0.23712 0.38983 l-1.5763 0 c-0.47458 0 -0.88136 -0.44068 -1.0339 -0.69492 l-2.339 -3.5763 l-2.8475 0 l0 3.9322 c0 0.20339 -0.13559 0.33881 -0.32203 0.33881 l-1.7966 0 c-0.16949 0 -0.30508 -0.13543 -0.30508 -0.33881 l0 -12.898 c0 -0.16949 0.13559 -0.32203 0.32203 -0.32203 l5.4068 0 c2.7797 0 4.4915 2.5763 4.4915 4.6441 c0 1.6442 -0.98305 3.4576 -2.661 4.2373 z M69.79673220338982 8.78 l0.00033103 4.6102 l2.9659 0 c1.6102 0 2.3898 -1.1695 2.3898 -2.3559 c0 -1.1356 -0.79661 -2.2542 -2.3902 -2.2542 l-2.9659 0 z M90.93183050847458 6.441000000000001 c0.18661 0 0.30525 0.20339 0.18661 0.38983 l-5.0169 7.7119 l0 5.1188 c0 0.20339 -0.11864 0.33881 -0.30525 0.33881 l-1.2712 0 c-0.52542 0 -0.83051 -0.37288 -0.83051 -0.86441 l0 -4.5932 l-5 -7.7119 c-0.11864 -0.18644 0 -0.38983 0.18644 -0.38983 l2.1695 0 c0.18644 0 0.27119 0.15254 0.37288 0.32203 l3.4746 5.3559 l3.4576 -5.3559 c0.11864 -0.16949 0.20339 -0.32203 0.37288 -0.32203 l2.2034 0 z"></path></g><g id="SvgjsG1009" featurekey="nameRightFeature-0" transform="matrix(1.8094608783721924,0,0,1.8094608783721924,241.57263024032446,10.560152815043221)" fill="#222831"><path d="M17.169525423728814 6.441000000000001 c0.11864 0 0.20356 0.067631 0.20356 0.18627 l0 13.186 c0 0.11881 -0.084746 0.18644 -0.20339 0.18644 l-0.35593 0 c-0.25441 0 -0.49169 -0.16933 -0.81373 -0.52525 l-8.9153 -10.525 l0 10.831 c0 0.13559 -0.084746 0.22017 -0.22034 0.22017 l-0.88136 0 c-0.15254 0 -0.22034 -0.08458 -0.22034 -0.22017 l0 -13.136 c0 -0.11864 0.067797 -0.20339 0.20339 -0.20339 l0.55932 0 c0.11864 0 0.20339 0.050847 0.32203 0.18644 l9.2034 10.932 l0 -10.932 c0 -0.11864 0.067797 -0.18644 0.18644 -0.18644 l0.9322 0 z M26.62716779661017 20.11864 c3.8305 0 6.9492 -3.0337 6.9492 -6.8981 c0 -3.8475 -3.1186 -6.8983 -6.9492 -6.8983 c-3.8475 0 -6.9661 3.0508 -6.9661 6.8983 c0 3.8644 3.1186 6.8981 6.9661 6.8981 z M26.62716779661017 18.8307 c-3.0847 0 -5.6441 -2.5085 -5.6441 -5.6102 s2.5593 -5.6102 5.6441 -5.6102 c3.0846 0 5.61 2.5085 5.61 5.6102 s-2.5254 5.6102 -5.61 5.6102 z M44.83076271186441 6.441000000000001 c0.15254 0 0.22051 0.067797 0.22051 0.22034 l0 0.84746 c0 0.13559 -0.067797 0.22034 -0.22034 0.22034 l-4.3729 0 l0 12.034 c0 0.15254 -0.067797 0.23712 -0.20339 0.23712 l-0.67797 0 c-0.30508 0 -0.45763 -0.18644 -0.45763 -0.47441 l0 -11.797 l-4.3729 0 c-0.15254 0 -0.23729 -0.084746 -0.23729 -0.22034 l0 -0.83051 c0 -0.16949 0.084746 -0.23729 0.23729 -0.23729 l10.085 0 z M55.779459322033894 7.728999999999999 l-7.3556 0.00049656 l0 4.9659 l4.5424 0 c0.15254 0 0.23729 0.067797 0.23729 0.23729 l0 0.81339 c0 0.15254 -0.084746 0.22034 -0.23729 0.22034 l-4.5424 0 l0 4.7458 l7.3559 0 c0.15254 0 0.23712 0.084746 0.23712 0.23712 l0 0.81356 c0 0.16949 -0.067797 0.23712 -0.23729 0.23712 l-8.4746 0 c-0.15254 0 -0.22034 -0.08458 -0.22034 -0.22017 l0 -13.119 c0 -0.15254 0.084746 -0.22034 0.22034 -0.22034 l8.4746 0 c0.15254 0 0.23712 0.084746 0.23712 0.22034 l0 0.84746 c0 0.13559 -0.067797 0.22034 -0.23729 0.22034 z"></path></g></svg>
