<svg width="369.79633096218646" height="78.25739427531062" viewBox="0 0 369.79633096218646 78.25739427531062" class="css-1j8o68f"><defs id="SvgjsDefs1013"></defs><g id="SvgjsG1014" featurekey="QMusi1-0" transform="matrix(0.9578185677528381,0,0,0.9578185677528381,-4.789092724322975,-0.7626356760184763)" fill="#64ee85"><g xmlns="http://www.w3.org/2000/svg"><path d="M32.333,65.361c8.958,1.709,15.884,6.871,15.884,6.871V24.876c0,0-6.965-5.167-15.939-6.884   c-9.089-1.738-20.957,1.695-20.957,1.695v47.36C11.32,67.047,23.226,63.617,32.333,65.361z"></path><path d="M87.912,67.219V19.863c0,0-9.15-2.892-17.676-2.029v32.216l-6.393-6.502l-6.396,6.502V21.774   c-3.475,1.7-5.664,3.271-5.664,3.271V72.4c0,0,7.148-5.156,16.105-6.869C76.996,63.792,87.912,67.219,87.912,67.219z"></path><path d="M91.412,23.99v48.136c0,0-13.762-3.849-23.992-1.893c-9.158,1.748-15.896,6.694-17.032,7.567v0.145   c0,0-0.033-0.023-0.097-0.072c-0.06,0.049-0.094,0.072-0.094,0.072v-0.145c-1.136-0.873-7.874-5.815-17.032-7.567   c-10.225-1.96-25.336,1.893-25.336,1.893V23.847C6.947,23.979,6.008,24.118,5,24.27v51.857c0,0,16.468-4.217,27.666-2.076   c11.02,2.107,17.671,8.449,17.671,8.449s6.654-6.342,17.671-8.449C79.211,71.907,95,76.127,95,76.127V24.496   C95,24.496,93.625,24.263,91.412,23.99z"></path></g></g><g id="SvgjsG1015" featurekey="UyNsn2-0" transform="matrix(2.3821232318878174,0,0,2.3821232318878174,102.9985262707771,16.803042371113808)" fill="#ffffff"><path d="M1.26 5.539999999999999 l3.02 0.000019531 l0 10.3 c0 0.34666 0.02 0.62666 0.06 0.84 s0.10334 0.38 0.19 0.5 s0.19666 0.2 0.33 0.24 s0.29334 0.06 0.48 0.06 c0.09334 0 0.2 -0.0033398 0.32 -0.01 s0.32 -0.03666 0.6 -0.09 l0.18 2.5 c-0.34666 0.10666 -0.67 0.17332 -0.97 0.19998 s-0.57 0.04 -0.81 0.04 c-1.0667 0 -1.9 -0.29 -2.5 -0.87 s-0.9 -1.5233 -0.9 -2.83 l0 -10.88 z M10.98 9.56 l0 10.44 l-3.02 0 l0 -7.22 l0.1 -0.72 l-1.72 0 l1.36 -2.5 l3.28 0 z M10.899999999999999 8.7 l-3 0 l0 -2.72 l3 0 l0 2.72 z M13.66 12.059999999999999 l-1.24 0 l0 -2.52 l1.24 0 l0 -2.84 l3 0 l0 2.84 l2.48 0 l-1.4 2.52 l-1.18 0 l0.1 0.64 l0 3.14 c0 0.34666 0.02334 0.62666 0.07 0.84 s0.12 0.38 0.22 0.5 s0.22666 0.20334 0.38 0.25 s0.33 0.07 0.53 0.07 c0.14666 0 0.32666 -0.01666 0.54 -0.05 s0.44 -0.07 0.68 -0.11 l0.16 1.34 l0.12 1.2 c-0.38666 0.08 -0.74 0.14 -1.06 0.18 s-0.64666 0.06 -0.98 0.06 c-1.24 0 -2.16 -0.28666 -2.76 -0.86 s-0.9 -1.52 -0.9 -2.84 l0 -4.36 z M24.96 9.44 c0.69334 0 1.3166 0.096622 1.87 0.28996 s1.0167 0.50668 1.39 0.94002 s0.66 0.99 0.86 1.67 s0.3 1.5 0.3 2.46 l0 0.31 l-0.04 0.63 l-5.6 0 l-0.42 -0.06 c0.01334 0.38666 0.05668 0.69666 0.13002 0.93 s0.18 0.41668 0.32 0.55002 s0.31 0.22668 0.51 0.28002 s0.42666 0.08668 0.68 0.10002 c0.41334 0.02666 0.77 -0.03334 1.07 -0.18 s0.58334 -0.44666 0.85 -0.9 c0.41334 0.13334 0.79334 0.26 1.14 0.38 c0.29334 0.10666 0.56 0.2 0.8 0.28 s0.36 0.11334 0.36 0.1 c-0.48 1 -1.0633 1.73 -1.75 2.19 s-1.51 0.69 -2.47 0.69 c-0.70666 0 -1.3467 -0.09334 -1.92 -0.28 s-1.06 -0.49 -1.46 -0.91 s-0.71 -0.96666 -0.93 -1.64 s-0.33 -1.4967 -0.33 -2.47 c0 -0.94666 0.11 -1.7567 0.33 -2.43 s0.53 -1.2267 0.93 -1.66 s0.88666 -0.75334 1.46 -0.96 s1.2133 -0.31 1.92 -0.31 z M26.060000000000002 13.440000000000001 l0.30004 0.04 c-0.02666 -0.46666 -0.15 -0.83 -0.37 -1.09 s-0.56334 -0.39 -1.03 -0.39 c-0.53334 0 -0.91668 0.13 -1.15 0.39 s-0.37668 0.62334 -0.43002 1.09 c0.06666 -0.01334 0.12666 -0.02334 0.18 -0.03 s0.11334 -0.01 0.18 -0.01 l2.32 0 z M34.58 9.92 c0.16 -0.10666 0.38332 -0.21 0.66998 -0.31 s0.61 -0.15 0.97 -0.15 c0.30666 0 0.55666 0.01334 0.75 0.04 s0.29 0.03332 0.29 0.01998 l0 2.66 c-0.30666 -0.02666 -0.60666 -0.03332 -0.9 -0.01998 c-0.25334 0.02666 -0.51668 0.07 -0.79002 0.13 s-0.52334 0.17 -0.75 0.33 c-0.26666 0.18666 -0.45666 0.44 -0.57 0.76 s-0.17 0.76 -0.17 1.32 l0 5.32 l-3 0 l0 -7.94 l-1.62 0 l1.28 -2.54 l3.34 0 l0 0.78 c0.06666 -0.05334 0.12666 -0.10668 0.18 -0.16002 c0.05334 -0.04 0.10668 -0.08334 0.16002 -0.13 s0.10668 -0.08332 0.16002 -0.10998 z M43.83999999999999 15.42 c-0.13334 -0.02666 -0.2733 -0.04338 -0.41996 -0.050038 s-0.27332 -0.01 -0.37998 -0.01 c-0.56 0 -1.0133 0.08666 -1.36 0.26 s-0.52 0.47334 -0.52 0.9 c0 0.26666 0.06334 0.47666 0.19 0.63 s0.28332 0.26668 0.46998 0.34002 s0.38332 0.11668 0.58998 0.13002 s0.38332 0.02 0.52998 0.02 c0.26666 0 0.56666 -0.03334 0.9 -0.1 l0 -2.12 z M42.79999999999999 13.219999999999999 c0.10666 0 0.24996 0.0033594 0.42996 0.01002 s0.38334 0.01666 0.61 0.03 c-0.01334 -0.52 -0.19668 -0.85666 -0.55002 -1.01 s-0.81 -0.23 -1.37 -0.23 c-0.30666 0 -0.66 0.03666 -1.06 0.11 s-0.83334 0.18334 -1.3 0.33 l-0.32 -1.1 c-0.04 -0.14666 -0.09666 -0.36 -0.17 -0.64 s-0.12334 -0.5 -0.15 -0.66 c0.66666 -0.22666 1.2967 -0.39 1.89 -0.49 s1.13 -0.15 1.61 -0.15 c1.4133 0 2.5066 0.33666 3.28 1.01 s1.16 1.75 1.16 3.23 l0 5.86 c-0.52 0.14666 -1.12 0.29 -1.8 0.43 s-1.4133 0.21 -2.2 0.21 c-0.69334 0 -1.3233 -0.06 -1.89 -0.18 s-1.0533 -0.32 -1.46 -0.6 s-0.72 -0.64666 -0.94 -1.1 s-0.33 -1.0067 -0.33 -1.66 s0.13666 -1.2 0.41 -1.64 s0.62668 -0.79 1.06 -1.05 s0.92 -0.44334 1.46 -0.55 s1.0833 -0.16 1.63 -0.16 z M52.39999999999999 9.92 c0.16 -0.10666 0.38332 -0.21 0.66998 -0.31 s0.61 -0.15 0.97 -0.15 c0.30666 0 0.55666 0.01334 0.75 0.04 s0.29 0.03332 0.29 0.01998 l0 2.66 c-0.30666 -0.02666 -0.60666 -0.03332 -0.9 -0.01998 c-0.25334 0.02666 -0.51668 0.07 -0.79002 0.13 s-0.52334 0.17 -0.75 0.33 c-0.26666 0.18666 -0.45666 0.44 -0.57 0.76 s-0.17 0.76 -0.17 1.32 l0 5.32 l-3 0 l0 -7.94 l-1.62 0 l1.28 -2.54 l3.34 0 l0 0.78 c0.06666 -0.05334 0.12666 -0.10668 0.18 -0.16002 c0.05334 -0.04 0.10668 -0.08334 0.16002 -0.13 s0.10668 -0.08332 0.16002 -0.10998 z M55.69999999999999 9.56 l3.36 0 l1.9 7.8 l2.18 -7.8 l3.14 0 l-2.3 7.66 c-0.25334 0.84 -0.50334 1.6767 -0.75 2.51 s-0.49 1.65 -0.73 2.45 c-0.16 0.50666 -0.35 0.92666 -0.57 1.26 s-0.47334 0.6 -0.76 0.8 s-0.60332 0.34 -0.94998 0.42 s-0.72666 0.12 -1.14 0.12 c-0.33334 0 -0.69668 -0.03666 -1.09 -0.11 s-0.84334 -0.19 -1.35 -0.35 l1.16 -2.16 l0.49 0.07 l0.33 0.03 c0.13334 0 0.26668 -0.01 0.40002 -0.03 s0.26334 -0.07 0.39 -0.15 s0.24666 -0.21 0.36 -0.39 s0.21668 -0.43 0.31002 -0.75 l0.14 -0.6 l0.28 -0.34 l-1.76 0 z M72.93999999999998 12.04 l-1.68 0 l1.32 -2.48 l2.9 0 l0.26 1.12 c0.33334 -0.36 0.73 -0.66 1.19 -0.9 s0.99 -0.36 1.59 -0.36 c1.2133 0 2.1134 0.32334 2.7 0.97 s0.88 1.67 0.88 3.07 l0 6.54 l-3.04 0 l0 -6.02 c0 -0.61334 -0.15 -1.0533 -0.45 -1.32 s-0.68334 -0.4 -1.15 -0.4 c-0.38666 0 -0.73332 0.13 -1.04 0.39 s-0.46 0.69 -0.46 1.29 l0 6.06 l-3.02 0 l0 -7.96 z M88.97999999999999 9.44 c0.69334 0 1.34 0.09668 1.94 0.29002 s1.1167 0.50334 1.55 0.93 s0.77334 0.98 1.02 1.66 s0.37 1.5 0.37 2.46 s-0.12334 1.78 -0.37 2.46 s-0.58666 1.2333 -1.02 1.66 s-0.95 0.73666 -1.55 0.93 s-1.2467 0.29 -1.94 0.29 c-0.70666 0 -1.3567 -0.09666 -1.95 -0.29 s-1.1067 -0.50334 -1.54 -0.93 s-0.77334 -0.98 -1.02 -1.66 s-0.37 -1.5 -0.37 -2.46 c0 -0.94666 0.12334 -1.7567 0.37 -2.43 s0.58666 -1.2267 1.02 -1.66 s0.94668 -0.75 1.54 -0.95 s1.2433 -0.3 1.95 -0.3 z M88.97999999999999 17.5 c0.6 0 1.07 -0.2 1.41 -0.6 s0.51 -1.1067 0.51 -2.12 s-0.17 -1.7233 -0.51 -2.13 s-0.81 -0.61 -1.41 -0.61 c-0.58666 0 -1.0567 0.21 -1.41 0.63 s-0.53 1.1233 -0.53 2.11 c0 1.0133 0.17334 1.72 0.52 2.12 s0.82 0.6 1.42 0.6 z M96.27999999999999 12.059999999999999 l-1.24 0 l0 -2.52 l1.24 0 l0 -2.84 l3 0 l0 2.84 l2.48 0 l-1.4 2.52 l-1.18 0 l0.1 0.64 l0 3.14 c0 0.34666 0.02334 0.62666 0.07 0.84 s0.12 0.38 0.22 0.5 s0.22666 0.20334 0.38 0.25 s0.33 0.07 0.53 0.07 c0.14666 0 0.32666 -0.01666 0.54 -0.05 s0.44 -0.07 0.68 -0.11 l0.16 1.34 l0.12 1.2 c-0.38666 0.08 -0.74 0.14 -1.06 0.18 s-0.64666 0.06 -0.98 0.06 c-1.24 0 -2.16 -0.28666 -2.76 -0.86 s-0.9 -1.52 -0.9 -2.84 l0 -4.36 z M107.57999999999998 9.44 c0.69334 0 1.3166 0.096622 1.87 0.28996 s1.0167 0.50668 1.39 0.94002 s0.66 0.99 0.86 1.67 s0.3 1.5 0.3 2.46 l0 0.31 l-0.04 0.63 l-5.6 0 l-0.42 -0.06 c0.01334 0.38666 0.05668 0.69666 0.13002 0.93 s0.18 0.41668 0.32 0.55002 s0.31 0.22668 0.51 0.28002 s0.42666 0.08668 0.68 0.10002 c0.41334 0.02666 0.77 -0.03334 1.07 -0.18 s0.58334 -0.44666 0.85 -0.9 c0.41334 0.13334 0.79334 0.26 1.14 0.38 c0.29334 0.10666 0.56 0.2 0.8 0.28 s0.36 0.11334 0.36 0.1 c-0.48 1 -1.0633 1.73 -1.75 2.19 s-1.51 0.69 -2.47 0.69 c-0.70666 0 -1.3467 -0.09334 -1.92 -0.28 s-1.06 -0.49 -1.46 -0.91 s-0.71 -0.96666 -0.93 -1.64 s-0.33 -1.4967 -0.33 -2.47 c0 -0.94666 0.11 -1.7567 0.33 -2.43 s0.53 -1.2267 0.93 -1.66 s0.88666 -0.75334 1.46 -0.96 s1.2133 -0.31 1.92 -0.31 z M108.67999999999999 13.440000000000001 l0.30004 0.04 c-0.02666 -0.46666 -0.15 -0.83 -0.37 -1.09 s-0.56334 -0.39 -1.03 -0.39 c-0.53334 0 -0.91668 0.13 -1.15 0.39 s-0.37668 0.62334 -0.43002 1.09 c0.06666 -0.01334 0.12666 -0.02334 0.18 -0.03 s0.11334 -0.01 0.18 -0.01 l2.32 0 z"></path></g></svg>
