<svg xmlns="http://www.w3.org/2000/svg" viewBox="1 10 99 80">
	<linearGradient id="linGrad1" stroke="none">
		<stop stop-color="#7f00ff" offset=".3"></stop>
		<stop stop-color="#e100ff" offset="1"></stop>
	</linearGradient>
	<g fill="url(#linGrad1)">
		<rect x="2.821" y="84.558" width="94.858" height="3.773"></rect>
		<path d="M27.106,83.311H11.459V13.118h15.647V83.311z M13.354,81.407H25.21V14.999H13.354V81.407z"></path>
		<path d="M27.106,28.991H11.459v-8.052h15.647V28.991z M13.354,27.108H25.21v-4.268H13.354V27.108z"></path>
		<path d="M27.106,76.435H11.459v-8.058h15.647V76.435z M13.354,74.536H25.21v-4.273H13.354V74.536z"></path>
		<path d="M76.748,83.53L58.58,15.719l15.123-4.05L91.87,79.471L76.748,83.53z M60.909,17.066l17.176,64.135 l11.457-3.066l-17.176-64.14L60.909,17.066z"></path>
		<path d="M74.719,75.959l-2.09-7.784l15.123-4.055l2.089,7.793L74.719,75.959z M74.957,69.517l1.105,4.131 l11.448-3.069l-1.097-4.13L74.957,69.517z"></path>
		<path d="M62.451,30.144l-2.102-7.77l15.134-4.07l2.091,7.792L62.451,30.144z M62.689,23.708l1.107,4.119 l11.447-3.071l-1.109-4.119L62.689,23.708z"></path>
		<path d="M60.716,83.53L42.547,15.719l15.122-4.05l18.156,67.802L60.716,83.53z M44.875,17.066L62.05,81.201 l11.461-3.066l-17.2-64.14L44.875,17.066z"></path>
		<path d="M58.685,75.959l-2.09-7.784l15.123-4.045l2.089,7.783L58.685,75.959z M58.911,69.517l1.12,4.131 l11.444-3.069l-1.105-4.13L58.911,69.517z"></path>
		<path d="M46.404,30.144l-2.088-7.77l15.122-4.07l2.088,7.792L46.404,30.144z M46.645,23.708l1.107,4.119 l11.445-3.071l-1.097-4.119L46.645,23.708z"></path>
		<path d="M44.67,83.53L26.489,15.719l15.123-4.05l18.179,67.802L44.67,83.53z M28.828,17.066l17.189,64.135 l11.457-3.066l-17.197-64.14L28.828,17.066z"></path>
		<path d="M42.65,75.959l-2.1-7.784l15.12-4.055l2.101,7.793L42.65,75.959z M42.876,69.517l1.12,4.131 l11.435-3.069l-1.097-4.13L42.876,69.517z"></path>
		<path d="M30.372,30.144l-2.1-7.77l15.133-4.07l2.079,7.792L30.372,30.144z M30.598,23.708l1.107,4.119 l11.458-3.071l-1.106-4.119L30.598,23.708z"></path>
	</g>
</svg>
