<svg width="408.40474352065144" height="52.48590500466969" viewBox="0 0 408.40474352065144 52.48590500466969" class="css-1j8o68f"><defs id="SvgjsDefs1001"></defs><g id="SvgjsG1007" featurekey="nameLeftFeature-0" transform="matrix(2.249452590942383,0,0,2.249452590942383,2.521643284956336,-3.29630329192754)" fill="#ffffff"><path d="M9.3729 17.6612 c0.18644 0 0.32203 0.13592 0.32203 0.33915 l0 1.678 c0 0.16949 -0.13559 0.32186 -0.32203 0.32186 l-8.0169 0 c-0.16949 0 -0.25424 -0.13543 -0.25424 -0.30508 l0 -12.932 c0 -0.16949 0.13559 -0.32203 0.32203 -0.32203 l1.7627 0 c0.18644 0 0.33898 0.15254 0.33898 0.32203 l0 10.898 l5.8475 0 z M13.982918644067796 6.441000000000001 l-1.6778 0 c-0.18644 0 -0.32203 0.15254 -0.32203 0.32203 l0 12.898 c0 0.18644 0.15254 0.33881 0.33898 0.33881 l1.678 0 c0.16933 0 0.32186 -0.16933 0.32186 -0.33881 l0 -12.898 c0 -0.16949 -0.16949 -0.32203 -0.33898 -0.32203 z M26.846966101694914 6.441000000000001 c0.16949 0 0.32203 0.13592 0.32203 0.32237 l0 1.6949 c0 0.16933 -0.15254 0.32186 -0.32203 0.32186 l-3.8305 0 l0 10.881 c0 0.20339 -0.13559 0.33881 -0.32203 0.33881 l-1.2542 0 c-0.54237 0 -0.84746 -0.37288 -0.84746 -0.86441 l0 -10.356 l-3.8136 0 c-0.16949 0 -0.33898 -0.13559 -0.33898 -0.32203 l0 -1.678 c0 -0.18644 0.15254 -0.33898 0.33898 -0.33898 l10.068 0 z M37.79660338983051 8.78 l-6.1697 -0.00033103 l0 3.4068 l3.322 0 c0.18644 0 0.33898 0.15254 0.33898 0.33915 l0 1.6778 c0 0.20339 -0.13559 0.3222 -0.33898 0.3222 l-3.322 0 l0 3.1356 l6.1695 0 c0.18644 0 0.33881 0.15238 0.33881 0.33881 l0 1.6613 c0 0.18644 -0.15238 0.33881 -0.33881 0.33881 l-8.2542 0 c-0.18644 0 -0.33898 -0.15238 -0.33898 -0.33881 l0 -12.898 c0 -0.16949 0.13559 -0.32203 0.3222 -0.32203 l8.2712 0 c0.18644 0 0.33881 0.15254 0.33881 0.32203 l0 1.6949 c0 0.18644 -0.15238 0.32203 -0.33881 0.32203 z M50.71128813559322 19.61017 c0.13559 0.20339 0.034064 0.38983 -0.23712 0.38983 l-1.5763 0 c-0.47458 0 -0.88136 -0.44068 -1.0339 -0.69492 l-2.339 -3.5763 l-2.8475 0 l0 3.9322 c0 0.20339 -0.13559 0.33881 -0.32203 0.33881 l-1.7966 0 c-0.16949 0 -0.30508 -0.13543 -0.30508 -0.33881 l0 -12.898 c0 -0.16949 0.13559 -0.32203 0.32203 -0.32203 l5.4068 0 c2.7797 0 4.4915 2.5763 4.4915 4.6441 c0 1.6442 -0.98305 3.4576 -2.661 4.2373 z M42.67808813559322 8.78 l0.00033103 4.6102 l2.9659 0 c1.6102 0 2.3898 -1.1695 2.3898 -2.3559 c0 -1.1356 -0.79661 -2.2542 -2.3902 -2.2542 l-2.9659 0 z M65.62662711864407 19.62712 c0.10169 0.20339 0.034229 0.37271 -0.20305 0.37271 l-1.9831 0 c-0.16949 0 -0.27119 -0.08458 -0.33898 -0.22017 l-0.91525 -1.9322 l-6.5256 0 l-0.91525 1.9322 c-0.067797 0.13559 -0.18644 0.22017 -0.33898 0.22017 l-2 0 c-0.20339 0 -0.32203 -0.16933 -0.22034 -0.37271 l6.3898 -13.102 c0.067797 -0.11881 0.15238 -0.16966 0.23712 -0.16966 l0.20339 0 c0.10169 0 0.16949 0.050847 0.23729 0.16966 z M56.695127118644066 15.6441 l4.4576 0 l-2.2203 -4.7288 z M77.82993220338983 19.61017 c0.13559 0.20339 0.034064 0.38983 -0.23712 0.38983 l-1.5763 0 c-0.47458 0 -0.88136 -0.44068 -1.0339 -0.69492 l-2.339 -3.5763 l-2.8475 0 l0 3.9322 c0 0.20339 -0.13559 0.33881 -0.32203 0.33881 l-1.7966 0 c-0.16949 0 -0.30508 -0.13543 -0.30508 -0.33881 l0 -12.898 c0 -0.16949 0.13559 -0.32203 0.32203 -0.32203 l5.4068 0 c2.7797 0 4.4915 2.5763 4.4915 4.6441 c0 1.6442 -0.98305 3.4576 -2.661 4.2373 z M69.79673220338982 8.78 l0.00033103 4.6102 l2.9659 0 c1.6102 0 2.3898 -1.1695 2.3898 -2.3559 c0 -1.1356 -0.79661 -2.2542 -2.3902 -2.2542 l-2.9659 0 z M90.93183050847458 6.441000000000001 c0.18661 0 0.30525 0.20339 0.18661 0.38983 l-5.0169 7.7119 l0 5.1188 c0 0.20339 -0.11864 0.33881 -0.30525 0.33881 l-1.2712 0 c-0.52542 0 -0.83051 -0.37288 -0.83051 -0.86441 l0 -4.5932 l-5 -7.7119 c-0.11864 -0.18644 0 -0.38983 0.18644 -0.38983 l2.1695 0 c0.18644 0 0.27119 0.15254 0.37288 0.32203 l3.4746 5.3559 l3.4576 -5.3559 c0.11864 -0.16949 0.20339 -0.32203 0.37288 -0.32203 l2.2034 0 z"></path></g><g id="SvgjsG1008" featurekey="inlineSymbolFeature-0" transform="matrix(0.671570360660553,0,0,0.671570360660553,219.80869642535066,-5.88362778317578)" fill="#2492f9"><path xmlns="http://www.w3.org/2000/svg" d="M81.561,11.942L76.64,15.19l-8.697-6.328l-4.008,5.01l-8.631-5.111l-7.302,23.684L40.7,8.761l-8.632,5.11l-4.007-5.009  l-8.696,6.329l-4.922-3.249l-6.781,6.679l-2.91-1.123v52.729l42.98,16.584l0.27,0.104l43.25-16.688V17.498l-2.91,1.123  L81.561,11.942z M39.827,11.021l6.295,20.419L33.015,15.055L39.827,11.021z M27.786,10.919l16.657,20.824l-23.74-15.67  L27.786,10.919z M14.631,13.862l27.162,17.929L9.197,19.214L14.631,13.862z M47.252,85.019l-41-15.82V19.686l41,15.819V85.019z   M81.373,13.862l5.434,5.352L54.211,31.791L81.373,13.862z M68.218,10.919l7.084,5.154l-23.741,15.67L68.218,10.919z M56.177,11.021  l6.812,4.034L49.882,31.439L56.177,11.021z M89.752,69.198l-41,15.82V35.505l41-15.819V69.198z"></path><path xmlns="http://www.w3.org/2000/svg" d="M85.844,26.411l-18.513,7.741v7.86l18.513-7.741V26.411z M84.344,33.273l-15.513,6.485V35.15l15.513-6.485V33.273z"></path></g><g id="SvgjsG1009" featurekey="nameRightFeature-0" transform="matrix(2.224731683731079,0,0,2.224731683731079,282.5003717449513,-3.0650669694566695)" fill="#ffffff"><path d="M17.508610169491526 6.441000000000001 c0.16949 0 0.33915 0.15254 0.33915 0.32203 l0 12.915 c0 0.16949 -0.13559 0.32186 -0.32203 0.32186 l-0.55932 0 c-0.45763 0 -0.94915 -0.32203 -1.5593 -1 l-6.9322 -7.7456 l0 8.4068 c0 0.16949 -0.15254 0.32203 -0.33915 0.32203 l-1.7288 0.016784 c-0.18644 0 -0.33898 -0.15238 -0.33898 -0.33881 l0 -12.898 c0 -0.16949 0.15254 -0.32203 0.32203 -0.32203 l1 0 c0.18644 0 0.30508 0.067797 0.45763 0.25424 l7.5763 8.678 l0 -8.6102 c0 -0.16949 0.13559 -0.32203 0.32203 -0.32203 l1.7627 0 z M27.067644067796607 20.11864 c3.7966 0 6.8983 -3.0507 6.8983 -6.9151 c0 -3.8305 -3.1017 -6.8814 -6.8983 -6.8814 c-3.8305 0 -6.9322 3.0508 -6.9322 6.8814 c0 3.8644 3.1017 6.9151 6.9322 6.9151 z M27.067644067796607 17.7798 c-2.4407 0 -4.5085 -2.1017 -4.5085 -4.5763 c0 -2.4576 2.0678 -4.5422 4.5085 -4.5422 s4.4915 2.0846 4.4915 4.5422 c0 2.4746 -2.0508 4.5763 -4.4915 4.5763 z M45.30459322033899 6.441000000000001 c0.16949 0 0.32203 0.13592 0.32203 0.32237 l0 1.6949 c0 0.16933 -0.15254 0.32186 -0.32203 0.32186 l-3.8305 0 l0 10.881 c0 0.20339 -0.13559 0.33881 -0.32203 0.33881 l-1.2542 0 c-0.54237 0 -0.84746 -0.37288 -0.84746 -0.86441 l0 -10.356 l-3.8136 0 c-0.16949 0 -0.33898 -0.13559 -0.33898 -0.32203 l0 -1.678 c0 -0.18644 0.15254 -0.33898 0.33898 -0.33898 l10.068 0 z M56.25423050847458 8.78 l-6.1697 -0.00033103 l0 3.4068 l3.322 0 c0.18644 0 0.33898 0.15254 0.33898 0.33915 l0 1.6778 c0 0.20339 -0.13559 0.3222 -0.33898 0.3222 l-3.322 0 l0 3.1356 l6.1695 0 c0.18644 0 0.33881 0.15238 0.33881 0.33881 l0 1.6613 c0 0.18644 -0.15238 0.33881 -0.33881 0.33881 l-8.2542 0 c-0.18644 0 -0.33898 -0.15238 -0.33898 -0.33881 l0 -12.898 c0 -0.16949 0.13559 -0.32203 0.3222 -0.32203 l8.2712 0 c0.18644 0 0.33881 0.15254 0.33881 0.32203 l0 1.6949 c0 0.18644 -0.15238 0.32203 -0.33881 0.32203 z"></path></g></svg>
