<svg width="210" height="256" viewBox="0 -18 210 256" class="css-1j8o68f">
	<g transform="matrix(3.266464948654175,0,0,3.266464948654175,15.869799450405566,-72.65864303862082)" fill="#ffffff">
		<path
			d="M36.54 70.14 c-14.46 7.02 -30.54 14.58 -33.66 14.58 c-2.7 0 -3.12 -1.86 -2.7 -4.62 c0.66 -4.62 6.24 -22.62 10.62 -39 c4.26 -15.78 6 -16.02 6.78 -16.14 c0.66 -0.06 1.02 -0.24 1.56 -0.54 c0.6 -0.36 0.24 1.2 -0.96 2.04 c-0.96 0.66 -1.62 1.8 -3.18 6.24 c-1.8 4.92 -3.06 8.22 -4.92 15.06 c-2.7 9.9 -7.38 27.06 -7.86 30.66 c-0.3 2.22 -0.3 4.38 0.9 4.38 s3.3 -0.42 13.92 -4.92 c10.68 -4.44 18.6 -8.46 19.86 -8.94 c0.3 -0.06 1.38 0.36 -0.36 1.2 z M31.878 75.96000000000001 c-4.44 0 -4.56 -17.46 -4.44 -32.46 c0.06 -7.32 0.36 -18.96 -1.86 -18.96 c-1.98 0 -5.58 7.32 -8.22 18 c-2.4 9.66 -4.38 19.62 -3.96 21.84 c0.3 1.56 -0.66 1.56 -0.84 0.12 c-0.42 -3.12 1.14 -13.92 3.42 -22.32 c2.34 -8.7 6 -18.84 9.42 -18.84 c4.26 0 3.84 14.76 3.72 19.92 c-0.24 11.4 -0.42 31.5 2.82 31.5 c3.18 0 9.66 -11.52 12.6 -25.26 c2.04 -9.6 2.94 -25.62 2.34 -32.16 c-0.06 -1.08 1.02 -0.54 1.08 0.24 c0.78 8.22 0.06 20.94 -2.46 32.82 c-3.24 15.66 -9.6 25.56 -13.62 25.56 z">
		</path>
	</g>
</svg>