<svg viewBox="0 -18 210 208">
	<path
		d="M109.556 118.89c-37.063 17.994-78.28 37.372-86.276 37.372-6.92 0-7.997-4.768-6.92-11.842 1.69-11.842 15.993-57.98 27.22-99.964C54.5 4.01 58.96 3.394 60.958 3.086c1.692-.153 2.615-.615 3.999-1.384 1.538-.922.615 3.076-2.46 5.23-2.461 1.691-4.153 4.613-8.152 15.993-4.613 12.611-7.843 21.07-12.61 38.602-6.92 25.375-18.917 69.36-20.147 78.587-.769 5.69-.769 11.226 2.307 11.226s8.458-1.076 35.68-12.61c27.374-11.38 47.674-21.685 50.904-22.915.769-.154 3.537.923-.923 3.076zm21.961 14.918c-11.38 0-11.688-44.753-11.38-83.2.154-18.763.923-48.598-4.768-48.598-5.075 0-14.302 18.762-21.069 46.137-6.151 24.76-11.227 50.29-10.15 55.98.769 3.998-1.692 3.998-2.153.307-1.077-7.997 2.922-35.679 8.766-57.21 5.998-22.3 15.379-48.29 24.145-48.29 10.92 0 9.843 37.833 9.535 51.059-.615 29.22-1.076 80.74 7.228 80.74 8.151 0 24.76-29.528 32.296-64.746 5.23-24.607 7.536-65.669 5.998-82.432-.154-2.768 2.614-1.384 2.768.615 2 21.07.154 53.673-6.305 84.124-8.305 40.139-24.607 65.514-34.91 65.514z"
		fill="#fff" />
</svg>