<svg viewBox="0 -18 210 224.56">
	<path
		d="M110.168 112.247c-23.252 9.886-40.645 8.97-60.602-8.24-4.028-3.478-6.225-4.943-10.436-.549-2.93 3.113-7.14 2.93-10.62-.183-2.928-2.563-3.295-5.675-1.098-8.788 2.38-3.479 5.493-6.408 9.887-3.662 6.774 4.394 9.52-.183 12.267-5.126 14.28-24.717 24.717-51.265 33.322-78.362l7.323-23.252c.367-1.281.916-2.38 2.38-2.014.367.183.733 1.648.55 2.564-1.099 4.028-2.197 8.055-3.479 12.083-9.887 33.14-21.421 65.546-40.096 95.023-1.83 2.746-3.113 5.492 1.465 8.971 20.689 15.929 31.308 18.126 53.095 10.802 2.197-.732 6.408-2.746 8.605-4.943 1.648-1.648 2.197-1.099 2.563.366.55 2.563-1.464 3.662-5.126 5.31zm-76.164-10.07c3.112-.183 5.858-2.197 6.041-4.76 0-2.564-3.112-3.296-6.408-3.48-2.014.55-4.577 1.466-4.21 5.127.182 2.747 2.38 3.113 4.577 3.113zm107.087 49.617c-3.112.183-3.478-5.127-2.929-8.24 5.676-34.97 11.718-69.939 26.73-102.528 4.944-10.436 8.972-21.239 13-32.04.732-1.832 2.93-4.761.183-6.592-2.014-1.282-4.028.916-5.676 2.014-16.111 9.704-29.294 22.886-41.377 36.984-16.112 18.309-29.477 38.631-40.646 60.236-.915 1.83-1.83 4.943-4.21 3.844-2.564-1.281-.184-3.661.548-5.492 10.253-27.463 22.886-54.194 34.238-81.291 2.014-4.943 7.506-11.718 2.93-15.563-2.93-2.38-8.972 4.76-13.366 7.873-6.591 4.577-12.084 10.253-17.21 16.295-2.747 3.113-9.155 6.774-2.197 12.267.549.55 0 1.83-.916 2.014-.732.366-2.014.366-2.563-.183-4.028-3.113-3.479-6.958-1.099-10.436C95.686 17.59 107.77 7.52 121.318-.901c2.014-1.282 4.577-1.831 6.957 0 2.564 2.013 2.014 4.76 1.282 7.506-3.113 11.535-8.971 21.97-13.182 32.956-3.662 9.52-9.52 18.126-11.718 28.378-.183.55.366.916.732.367 7.324-9.155 14.464-18.492 21.97-27.647 11.718-14.097 24.535-27.097 39.73-37.533l5.493-3.295c3.113-1.648 6.592-2.746 9.338 0 2.38 2.38 1.648 5.676.55 8.605-4.029 12.084-8.789 23.801-14.282 35.336-14.83 32.04-21.055 66.094-26.73 100.515v.915c-1.465 2.38 3.295 6.408-.367 6.592z"
		fill="#fff" />
</svg>