<svg viewBox="0 -18 210 201.56">
	<path
		d="M50.713 129.341c-.938 0-1.72-.156-3.128-.47-2.19-.468-6.882-2.502-7.508-3.127-.313-.313-.782-.47-.938-.47-.313 0-.939-.469-1.564-.938-.626-.626-2.034-1.72-3.129-2.503-2.346-1.72-5.63-5.63-6.725-8.133-.783-2.034-1.721-6.882-1.721-10.636 0-1.564 0-2.972.156-3.129v-1.72c0-.782 0-1.564.157-1.72l.156-.157.157.156.312-.156c.313-.156.47-.47.47-.626s-.313-.313-.626-.313-.313-.156-.313-.469v-.625l.626.312.156-.156c0-.313 0-.47-.313-.47h-.156l-.156-.312c.156-.313.156-1.564.312-2.816l.157-2.971c.156-.47.156-.782.313-.939.156 0 .156-.47.156-.782v-.47c0-.781.157-1.72.47-1.72.156 0 .156-.313.156-.625v-.626h.156c.157 0 .47-.156.47-.47 0-.156 0-.312-.157-.312h-.47s-.156 0-.156-.156l.157-.626c.156-.47.469-.626.625-.626h.157l-.157-.156c-.156-.157-.156-.626-.156-1.095 0-1.564.626-4.223 1.095-4.223.156 0 .313-.157.313-.313s0-.156-.157-.156h-.313l-.156-.157c0-.47.47-3.91.782-4.536.157-.156.157-.782.157-.938v-.313c0-.313.156-.782.312-1.095.313-.313.313-.782.313-.939l-.156-.469c0-.938.625-2.972.938-2.972.157 0 .157 0 .157-.156v-.47c0-.312.156-.625.469-.938l.47-.625a.336.336 0 00-.314-.313c-.625-.157-.625-.313-.625-.782.156-.626.313-.939.469-.939v1.252l.313-.313c.156-.313.469-.47.625-.47.313 0 .313-.156.313-.156 0-.313-.313-.47-.625-.626-.47-.156-.626-.156-.626-.625l.313-1.095.156-1.095c0-.156.157-.47.47-.47.469-.312.781-.781.781-1.094l-.156-.157-.156.157c-.157.313-.47.47-.626.47l-.156-.314.156-.313c.156-.312.313-.469.626-.469h.469l-.313-.156-.47-.626c0-.156.157-.156.314-.156l.312.156-.312-1.095c0-1.251.469-3.284.782-3.754.156-.156.156-.469.156-.782v-.156c0-.313.157-.782.313-1.095.313-.313.313-.47.47-.47v.47l-.157.313h.156l.313-.313c.313-.313.626-.47.782-.47.313 0 .782-1.094.782-1.563v-.313l-.156-.157-.157.313c-.156.313-.313.47-.469.47s-.313-.313-.313-.783v-.312c0-.157 0-.313-.156-.313s-.157-.157-.157-.313c0-.47.157-1.251.47-2.503l.469-1.877c.156-.625.47-1.407.626-1.564l.156-.47-.156-.312c0-.313 0-1.095.156-1.72s.156-.939.313-.939l.625.313-.469-.939c0-.156.157-.312.313-.469.313-.156.313-.313.313-.469l-.157-.626c0-.782.313-1.72.47-1.72.313 0 .469 0 .469-.157l-.156-.156c-.313-.156-.313-.156-.313-.313l.625-2.659c.157-.782.313-1.251.626-1.251h.313c0-.157 0-.157-.313-.313l-.156-.156.156-.313c.313 0 .47-.313.47-.626v-.156h.156c.156 0 .312 0 .312-.157s-.156-.313-.469-.313c-.156-.156-.156-.156-.156-.625l.156-.939c.939-3.44 1.408-5.161 1.72-5.161h.626c.157-.157.157-.313.157-.626s-.313-.313-.47-.313l-.312.157c-.157 0-.157 0-.157-.157l.157-.625c.156-.313.469-.626.782-.626h.313l-.313-.313c-.313-.313-.47-.47-.47-.782 0-.156.157-.313.47-.313l.313-.156-.313-.782.938-3.754c.782-3.441 1.564-6.1 1.72-6.257.157 0 .157-.156.157-.313l.157-1.564.469-1.564v-.156c0-.939 1.095-3.91 1.408-3.91s.469-.47.469-.939c0-.156 0-.47-.157-.47l-.156-.469.313-2.033c.626-3.441.782-5.787.782-6.726l-.156-1.25 2.815.155 2.19 1.095c.625.626 1.564 1.252 2.19 1.565.469.156 1.094.625 1.25.938.314.313 1.096 1.251 1.721 2.19 1.564 1.72 3.129 4.38 3.129 5.161l-.313.626v.313c0 1.251-.939 6.1-1.877 9.228L59.16 7.965c-.47 1.72-.783 2.815-.939 2.815s-.156.313-.156.626 0 .782-.157 1.095c-.469 1.564-1.095 4.066-1.251 5.318-.156.938-.313 1.564-.47 1.564s-.469.938-.625 2.19c-.156 1.094-.47 2.346-.782 2.659l-.313.625v.313l-.625 3.441-.626 2.503c-.47 1.251-.782 2.659-.782 2.972 0 .469-.157.782-.313.782s-.156.156-.156.312l.156.626c-.156.157-.313.782-.47 1.564-.156 1.252-1.25 6.257-1.876 8.29l-.313 1.877c0 .156 0 .313-.156.313s-.313.626-.313 1.251a8.572 8.572 0 01-.626 1.877l-.313.626v.47c0 .781-.313 2.658-.625 3.44-.313.47-.939 4.223-.939 5.318v.157c0 .156.157.156.47.156.156 0 .312.156.312.47l-.156.312-.626-.313c-.313 0-.47.157-.47.626v.938c-.312.626-.625 1.72-.781 2.972l-2.19 11.731-.156 2.19.625-.156c.157 0 .157 0 .157.156-.157.156-.157.313-.313.313h-.157c-.469 0-.782.469-.782 1.095 0 .313.313.313.47.313h.156c.156 0 .156.156.156.469 0 .156 0 .313-.156.313l-.313-.313c-.156 0-.313.156-.313.469v.313c0 .313-.156.625-.312.782s-.313.782-.313 1.408-.157 1.25-.313 1.25-.157.157-.157.314.157.313.626.469l.626.156h-.626c-.313 0-.47.157-.47.313v.157l.157.312h.313s.157.157.157.47-.157.782-.47.782l-.156.156.156-.782-.313.47c-.469.469-.625 1.094-.625 1.407v1.72l-.157.626c0 .313.157.626.313.626s.157-.157.313-.313l.156-.156v.312c-.156 2.034-.312 3.442-.469 3.442s-.156.156-.156.469v.938l-.626-1.095-.156.47-.157 1.877.157.469.313-.157c.312-.312.312-.312.469-.312v.312c-.157.313-.157.626-.157.782s-.156.313-.312.313c-.313 0-.626.626-.626.939l.156.469h.157v-.313c0-.313 0-.469.156-.469.313 0 .47.156.47.47l-.157.938c-.156.782-.313 2.659-.313 4.223v1.408c0 1.407.157 6.1.313 7.35s.156 1.252 1.408 1.565l1.407.156 3.285-.312.47.156.312.156 1.095-.312c.626-.313 1.564-.47 1.877-.47s.47-.156.47-.156v-.313c0-.156 0-.156.156-.156.938-.157.938-.157 1.564-.47l.469-.312.156.156c0 .157.157.157.47.157.625 0 1.877-.313 3.597-.939l3.128-1.251 2.034-1.095.313-.157-.157-.312c0-.157.157-.157.313-.157h.47c.469 0 1.25-.156 1.876-.469.47-.313.782-.47 1.095-.47h.157l.625-.469c.313-.312.626-.469.939-.469h.312c.313 0 .783 0 1.095-.156l2.972-1.408c1.252-.626 2.19-1.095 2.19-1.408v-.156c0-.156.313-.156.626-.156h.469c.782 0 1.72-.47 1.72-.782v-.157c0-.156 0-.313.313-.47h.157v.47l.313-.156c.156-.157.625-.313.782-.313s.312-.157.312-.313v-.156c0-.157 0-.157.313-.157h.157c.625 0 1.72-.469 2.971-1.251l1.408-.47 3.285-1.25c1.251-.47 2.033-.783 2.502-.783.157 0 .313 0 .313.313v.157c0 .312.157.469.313.469.313 0 .626-.157 1.251-.47l1.252-.312c.156 0 .313 0 .469.313v.156c0 .156-.156.156-.47.156h-.156c-.156 0-.313 0-.313.157v.156c0 .47-.938 1.408-1.407 1.408h-.157c-.312 0-.469 0-.469.156l.157.626c0 .47-.313.782-.626.782h-.157c-.156 0-.782.156-1.407.626L87 106.66c-.313 0-.47.47-.47.782v.157c0 .469-.468.782-.781.782l-.313-.157-.157-.156v.313c0 .313 0 .469-.156.469h-.156l-.313.156c0 .313-.313.47-.47.47s-.469.312-.469.469c-.156.313-.625.625-1.25.782l-1.252.782v.313h.156c.47 0 .939.156.939.313v.156l-.626.156c-.313.157-.938.313-1.251.626s-.939.626-1.408.626h-.47l.626-.782c0-.157 0-.157-.156-.157l-.626.157c-.312.156-.782.313-1.095.313-.469 0-.625.156-.625.312s-.157.313-.313.313c-.313 0-.626.157-.626.313l-.156.313.313.156c.313 0 .625-.156 1.095-.469s.625-.313.782-.313.313 0 .469.157l.313.312-.782-.156v.156c0 .157-.47.47-.939.626l-.625.313h.156c.313 0 .313.156.313.156 0 .157 0 .313-.313.313s-.47 0-.47-.156l-.312-.157-.313.157c-.313 0-.47.313-.47.469v.156l-.156.47-.312.156.312.313c0 .156-.156.47-.625.625-.626.313-.939.626-.939.783 0 .312.157.469.47.625l.312.157.313-.47c.157-.469.47-.625.782-.625.157 0 .47.156.626.469l.156.313c0 .156-.313.313-1.407.625-.47.157-.626.313-.626.47l.156.313-.312.156a.336.336 0 00-.313.313l.156.313v.469l-.156.156-1.252-.156.47.313c0 .156-.313.312-.626.312h-.313l-1.408.157c-.156.156-.312.156-.312.313h.625l-.156.313-.626.156-.625-.156c-.313 0-.783.156-1.565.469-.938.469-1.72.625-1.877.625h-.156l.156.157.47.156c.313 0 .625-.156 1.095-.313l1.25-.312h.157l-.156.156h-.157l.313.313c0 .313-.313.313-1.095.625-.625.157-1.25.47-1.407.626 0 .157-.313.313-.47.313l-1.407.313c-2.346 1.251-6.726 2.502-8.603 2.502l-2.659.313c-.938.157-1.564.313-2.19.313zM43.831 16.098l.626-.782h-.313c-.157 0-.47.313-.47.626zm-.47 1.877c.157 0 .47-.156.47-.47l.156-.156-.156-.156h-.156c-.157 0-.157.156-.313.313l-.157.313zm-1.876 6.1c.156 0 .313-.156.47-.313 0-.156 0-.156-.157-.156l-.47.156c0 .313 0 .313.157.313zm0 1.564l.156-.156v-.157h-.156c-.157 0-.157 0-.157.157zm-2.033 4.38v-.157h-.47c0 .157 0 .157.313.157h.157zm-2.972 12.67l.625-.314c0-.156-.156-.156-.469-.156a.336.336 0 00-.313.313zm10.949 3.284l.312-.47-.156-.156h-.156l-.313.47zm-.157.938v-.156a.336.336 0 00-.313-.313l-.156.157.156.156c0 .156.157.156.313.156zm2.66 1.252c0-.313.156-.782.312-1.095l.313-.47s0 .47-.313 1.095c-.156.313-.156.47-.313.47zm-4.068 2.659l.626-.626c.157-.156.313-.47.313-.782v-.313l-.156-.156c-.157 0-.313.156-.47.782-.313.47-.313.782-.313.938v.157zm.157 1.72c.313 0 .47-.156.47-.469-.157-.313-.157-.626-.314-.626l-.469.939c0 .156.156.156.313.156zm-1.877-.469c.156 0 .156-.156.156-.156l-.313-.157-.156.157s0 .156.313.156zm-9.072 2.972l.156-.157v-.625l-.312-.157a.336.336 0 00-.313.313l.156.313c.157.156.157.313.313.313zm10.48-.47l.156-.156-.156-.156c0-.157-.157-.157-.157-.157v.313zm-2.503 1.565c.156 0 .313 0 .313-.313l.156-.156h-.156s-.157 0-.313.312v.157zm-8.916.625c.313-.156.313-.156.313-.312s-.156-.313-.313-.313-.312.156-.312.313zm-.156 1.721l.156-.313v-.156a.336.336 0 00-.312-.313h-.157l-.313.313.157.156zm10.48.313l.156-.313-.313-.156v.156c0 .313.157.313.157.313zm-.313 1.251c.156 0 .313-.156.313-.313s-.157-.313-.313-.313-.313.157-.313.313zm-.782 2.033l.313-.156.156-.626h-.156s-.157.157-.157.47zm-11.731 2.66l.626-.313c.469-.313.782-.782.782-1.252.156-.469.156-.938.312-.938s.313-.157.313-.313h-.156l-1.095 1.095c-.626.782-.939 1.408-.939 1.564s0 .157.157.157zm15.016-.157h-.157v-.47h.157v.47zm-3.442.313s0-.313-.156-.47c0-.156-.156-.156-.156-.156v.313l.156.313h.156zm2.972.938s-.156-.156-.156-.469c0-.156 0-.313.156-.313s.157 0 .157.157v.156c0 .313-.157.47-.157.47zM32.1 67.09l.157-.157v-.156c0-.157 0-.313-.157-.313l-.156.313v.156zm8.603.625a.336.336 0 00.313-.312l-.157-.313-.313.313c0 .156 0 .312.157.312zm4.692 2.19v-.313l.157-.313h.156l-.156.47zm-13.764.626v-.157h-.313v.157h.313zm13.295.625v-.312l.313-.313.156.156-.156.157a.336.336 0 01-.313.312zm-3.285.626c.157 0 .313-.156.313-.47L41.798 71l-.313.313c-.157.156-.313.313-.313.47h.47zm-1.564.47l.157-.314c0-.156-.157-.312-.313-.312s-.313.156-.313.312zm-.156 1.563c0-.156 0-.312-.157-.312v-.157c-.156 0-.156.157-.156.313zm-9.229.626l.157-.156-.157-.313c-.156 0-.156 0-.156.156zm7.195 0l.157-.156-.157-.157s0-.156-.156-.156v.313zm6.413 1.408l-.156-.313v-.313h.156l.157.313zM30.85 78.194v-.156h-.47c0 .156.157.156.313.156h.157zm12.67 1.251c-.157 0-.157-.156-.157-.313l.313-.312.156.312a.336.336 0 01-.313.313zm-2.973 0c0-.156 0-.313-.156-.469-.156 0-.156.156-.156.313zm-.938 3.754c.156 0 .626-1.407.626-2.033 0-.157 0-.626.156-.782v-.157h-.156c-.47 0-.782 1.565-.782 2.503v.313zm-2.972-1.251l.156-.156v-.157c0-.156-.156-.313-.312-.313s-.157 0-.157.157v.156c0 .157.157.313.313.313zm1.72.47v-.157l-.156-.313v.47h.157zm-4.379 1.407l.156-.157c0-.156-.156-.156-.156-.156l-.313.156s0 .157.313.157zm5.475 2.19l.156-.157-.156-.625c0-.313 0-.47-.157-.626l-.156.47c0 .312 0 .625.156.781zm3.284-.782h-.156l-.157-.157v-.156h.157c.156 0 .156.313.156.313zm-14.703 1.25l.157-.156c.156-.156.156-.312.313-.312l.312.312c.157 0 .313-.156.47-.312l.156-.47-.156-.312h-.313c-.47 0-1.095.312-1.095.782v.156c0 .313 0 .313.156.313zm10.48 3.911l.156-.156c.313 0 .47-.313.47-.626l-.157-.313c-.156 0-.156.157-.313.313-.312.157-.469.47-.469.626zm2.972 1.877l-.157-.156.157-1.408.156-.626c.157 0 .157 0 .157.157v.313c0 .782-.157 1.72-.313 1.72zm-13.295.157v-.47h-.157s-.156 0-.156.157c.156.313.156.313.313.313zm6.413 1.72l.313-.313v-.313a.336.336 0 00-.313.313l-.157.157zm-6.726-.156c.313 0 .313-.157.313-.313h-.47v.156zm8.603.313v-.47h-.157s-.156 0-.156.157c.156.313.156.313.313.313zm-1.72.625l.156-.313-.313-.156v.156c0 .313.156.313.156.313zm5.943.939c.156-.157.156-.47.156-.939l-.156-.625c-.157 0-.157.156-.157.469l-.156.782c0 .156 0 .313.156.313h.157zm-1.095 7.82c.156 0 .156-.156.156-.313v-.156c0-.156 0-.313-.156-.313h-.156c-.157.157-.157.313-.157.47s.157.312.313.312zm51.147-.938c.47 0 .938-.313 1.095-.47 0-.156 0-.312-.157-.312-.469 0-1.094.313-1.094.625zm2.19.313h-.157v-.157c.157-.156.313-.313.47-.313s.156.157.156.313c-.156.157-.313.157-.47.157zm2.346.469l-.156-.157v-.156h.156l.156.156zm-55.683 2.19c0-.157 0-.313-.156-.47-.157 0-.157 0-.157.157 0 .313.157.313.313.313zM87 107.6l.47-.47c.312-.312.781-.625 1.25-.625.313 0 .783-.157.783-.313.156-.156.312-.313.625-.313s.782-.313.939-.47c.156-.312.313-.468.469-.468s.156.156.156.625c0 .313-.312.626-.938.782-.47 0-.939.313-.939.47s-.156.156-.312.156h-.157c-.313 0-.782.156-1.095.313zm-47.706-.313a.336.336 0 00.313-.313l-.156-.313a.336.336 0 00-.313.313v.156zm40.98-.626a.336.336 0 00.313-.313c-.156-.156-.156-.312-.313-.312l-.156.312v.157zm-9.384.782l-.157-.156c0-.157.157-.157.157-.157l.312.157zm-31.44.939l-.156-.157s0-.156-.156-.156l-.157.313h.47zm37.852-.782l.313-.157c0-.156-.156-.156-.156-.156-.157 0-.313 0-.313.156h-.156c0 .157.156.157.312.157zm6.1 2.19v-.157c0-.313 1.565-1.564 2.503-2.033l.47-.313h-.157c-.313 0-.782 0-1.408.313-.782.312-1.72.469-2.033.469s-.939.313-1.095.626l-.156.469.469.313v-.313c0-.157 0-.157.156-.157s.47.157.47.313c.156.313.469.47.625.47h.157zm6.413-1.252v-.156l.47-.313c.782-.47 1.407-.626 1.72-.626l.313.157s-.313.312-.626.312zm-13.764 0c.157 0 .313-.156.47-.47 0-.156 0-.312-.157-.312h-.156c-.313.156-.313.47-.313.626 0 0 0 .156.156.156zm-36.757.47c.157 0 .157-.157.157-.157 0-.156-.157-.156-.157-.156-.156 0-.156 0-.156.156zm49.896-.157l-.157-.156c0-.157 0-.157.157-.157 0 0 .156 0 .156.157zM87 110.102l-.313-.156 1.095-.782-.156.313c-.157.312-.47.625-.626.625zm-5.944.313c.47 0 .939-.156.939-.313s-.313-.313-.782-.313c-.313 0-.782 0-.939.313l-.156.157c0 .156.156.156.938.156zm4.85 0l-.157-.156v-.157h.313v.157zm-1.409.939c-.312 0-.469-.157-.469-.313l.626-.313c.313 0 .47.156.47.313s-.157.156-.627.313zm-1.72.469v-.313l.313-.156h.469c0 .156-.156.156-.313.312zm-7.039 1.408c.157 0 .157-.157.157-.157 0-.156-.157-.156-.157-.156-.156 0-.156 0-.156.156zm7.352.312h-.157v-.469l.157.157v.312zm-4.536 2.034c-.313 0-.47 0-.47-.157l.783-.625 1.877-.939v.313l.156.156c.156 0 .47-.156.626-.469.312-.313.469-.47.625-.47l.157.157-.313.313c-.157.157-.626.626-1.251.782l-1.252.626c-.156.156-.625.313-.938.313zm-21.116-1.408h-.313v-.156h.313v.156zm15.954.313c.157 0 .157-.157.157-.313s-.157-.313-.313-.313-.157 0-.157.157v.156zm-1.095-.157c.157 0 .157 0 .157-.156v-.156s-.157-.157-.47-.157-.469 0-.469.157zm-18.144 1.095c-.156 0-.156 0-.312-.313 0-.156.156-.156.312-.156h.157v.156zm21.116-.469l.156-.313-.156-.156c-.156 0-.156 0-.156.313 0 .156.156.156.156.156zm8.29-.156h-.313v-.157h.313v.157zm-2.815.625c-.157 0-.157 0-.157-.156.157-.313.313-.313.313-.313h.156l-.156.156c0 .313-.156.313-.156.313zm-2.66 3.129c-.156 0-.312-.157-.312-.313s-.313-.313-.626-.313-.47.156-.47.156l.157.47h-.156c-.157 0-.47 0-.626-.157l-.156-.313c0-.156.156-.156.469-.313s.626-.312.626-.625c0 0 0-.157-.313-.157-.157 0-.157-.156-.157-.312 0-.313.313-.47.47-.47s.312-.156.312-.312l-.312-.626.312.313.157.625-.157.782.313.47c.47.156.626.625.626.938 0 0 0 .157-.156.157zm2.034-1.877l-.313-.157-.156-.313.156-.469c0-.156.156-.156.156-.156l.313.156c0 .157.157.157.313.157h.313v.156c-.156.313-.626.626-.782.626zm1.251-.47s-.156 0-.156-.156.313-.47.469-.626l.313.157-.313.469c0 .156-.156.156-.313.156zm-5.787.782h-.157s-.156-.156-.156-.469c.156-.313.156-.625.313-.625.313 0 .313.156.313.469s0 .469-.313.625zm-1.72-.312v-.313c-.157 0-.157-.157-.157-.157v.47h.156zm-1.878 1.094c.313 0 .626-.312.939-.625l.313-.47h-.47l-.782.626-.156.313zm-1.407 1.252c.313 0 .938-.47.938-.782v-.157c0-.156 0-.313-.156-.313l-.313.313c-.156.313-.313.626-.626.626-.156 0-.156 0-.156.156zm-4.38-.313l1.564-.626v-.156s-.313 0-.469.156c-.47 0-1.095.313-1.095.47v.156zm2.033 1.408l.939-.157a.86.86 0 00.47-.782c0-.469-.157-.625-.314-.625l-.938.312c-.626.313-1.408.626-1.72.626-.157.156-.47.156-.626.156l-.157.313c0 .157.157.157.313.157l1.564-.782c.157 0 .157.156.157.312v.313c0 .157 0 .157.312.157zm2.503-.157c.626 0 1.877-.313 2.033-.625l-.625-.313v-.157h-.157c-.156 0-.312 0-.469.157-.47.313-.938.625-.938.782zm.939 1.252c0-.157 0-.313-.157-.47-.156 0-.156.157-.156.313zm-10.167 1.094c.156 0 .469-.156.782-.625l.313-.47h-.157l-.938.313c-.157 0-.157.157-.157.47zm2.659-.312l-.157-.157s0-.156-.156-.156l-.156.313h.469zm-4.536 1.25c0-.155 0-.312-.157-.468-.156 0-.156.156-.156.313s.156.156.313.156zm-1.095.783l.47-.313-.157-.625-.157-.313c-.156 0-.156.156-.313.313l-.156.469zm12.982-.938l-.313-.157.157-.156h.313l.312.156s-.156.157-.469.157zm-6.57 1.72l-.156-.313h-.156v.157l.156.156h.157zm37.532 4.536c-1.095 0-2.033-.156-2.033-.313s-.47-.313-.939-.313-1.407-.312-2.033-.625-1.408-.626-1.72-.626c-.47 0-1.252-.47-1.878-.938s-1.25-.939-1.407-.939-.782-.782-1.252-1.564c-.938-1.564-.938-1.877-.938-4.223 0-1.251.313-2.972.47-3.754l.156-1.564v-.157l.312-.625.313-.47-.156-.156c-.157 0-.157-.47-.157-1.251 0-.939 0-2.346.313-4.38.313-2.972.626-6.256.626-7.195.156-.938.156-1.877.313-2.19s.312-2.19.469-5.318c0-.312.156-.782.313-1.094s.313-1.095.313-1.721v-.47c0-1.094.312-2.658.782-5.63.156-.626.156-1.408.156-1.72l-.156-.47.469-.626-.157-.156v-.313l.313-2.19c.313-1.407.47-2.659.47-3.128 0-.313.156-.938.469-1.408.313-.312.625-.938.782-1.407l.156-.47-.156-.156-.782.626-.157-.157.157-.469c.156-.47.313-1.72.469-2.972.156-1.564.47-2.502.938-2.972a1.69 1.69 0 00.47-1.094v-.47c-.313-.782-.313-1.251-.313-1.407v-.157h.156c.313 0 .313-.156.313-.313s0-.313-.313-.313c-.156-.156-.313-.469-.313-.938v-2.19c0-.313 0-.469.157-.625.156 0 .313-1.095.313-2.19.156-1.564.469-2.66.782-2.66l.313.314-.157-.626c0-.47 0-.939.157-.939.469 0 1.564-.469 1.564-.782l-.157-.156-1.251.47v-.626c0-.157 0-.313-.156-.313s-.157-.157-.157-.47l.313-.312.156.156.313.157c.157 0 .47 0 .626-.157l.47-.313h-.47c-.47 0-.626 0-.626-.156l.157-.47c.156-.469.312-.781.625-.781l.47-.157c0-.156-.157-.313-.313-.47-.313-.312-.626-.625-.626-.938l-.156-.469c-.157 0-.313.313-.313.782v.313c0 .156 0 .47-.157.47s-.312-.314-.312-.94.156-1.094.312-1.094c.157-.156.313-.47.313-.939v-.156c0-.313.157-.782.313-.938.156-.313.313-.626.313-1.095l-.313-2.816.156-.469c.313 0 .313.313.313.626s0 .625.157.625.313-.312.313-.938c0-.47 0-.782-.157-.782h-.156l-.313-.157v-.156c0-.156.156-.156.313-.313l.313-.313c0-.156 0-.313-.313-.469-.313-.313-.313-.626-.313-.938 0-.47.156-.782.47-.782h.312l-.313-.313c-.313-.313-.47-.782-.47-1.252v-.469c.157-.625.314-1.251.47-1.408l.157-1.877c0-.782 0-1.876.156-2.346.156-.313.313-1.407.313-2.346v-1.564s.156-.313.156-.782l.157-4.849c.469-6.1.625-9.697.625-12.044l.157-4.38c0-2.345-.626-8.133-1.095-9.071-.313-.626-.47-1.095-.47-1.564 0-.313.157-.626.47-.782s.625-.313 1.095-.313c.782 0 1.877.313 3.44 1.095 1.252.625 1.878.938 2.503.938l3.129-.626c1.095 0 2.033.313 3.91 1.252 1.408.782 3.128 1.408 3.597 1.564 1.095.156 8.134 6.726 8.134 7.508 0 .313.47 1.095.782 1.564.782.626 1.095 1.564 1.564 2.502l.313.626c.313.782 1.095 3.91 1.095 4.38l.313.625c.469.782 1.407 6.57 2.346 14.703.156 1.408.313 2.816.47 3.285.468 1.72.938 7.038.938 8.759v.47l-.782-1.096v.782l-.47-.625c-.156 0-.156.469-.156 1.564.156 1.095.313 1.72.47 1.72s.312 0 .312.313l-.156.313h-.157c-.156 0-.156.939-.156 2.19.156 1.408.313 2.346.469 2.346s.313-.156.313-.313v-.625c0-.47 0-.626.156-.626s.313.313.313.782l-.156.47.312-.626c.157-.313.313-.47.47-.47l.156.939c0 .625 0 1.251.156 1.407l.157.313-.313.939c-.156 0-.156-.313-.156-.626 0-.47-.157-.782-.313-.782l-.157.626.313 2.19c0 .312-.156.312-.313.312h-.312c-.157 0-.313.157-.313.313s.156.313.313.313h.156c.313 0 .47.156.47.626l.156.469.156-.626c.156-.313.313-.625.47-.625l.625 4.692.313 3.754-.157.47h-.312l-.47.156c-.313.312-.469.469-.469.625s.156.313.313.313.47 1.251.626 2.972l.156 2.19c0 .469 0 .625-.156.625h-.313c-.157 0-.157.313-.157 1.408l.47 3.128.312 1.095-.156-1.251v-2.503l.156-.625.157.469c0 .313.156.782.469.782h.156l-.156-.782c0-.47 0-.939.156-.939s.313.782.47 1.877c0 .939.156 2.19.312 2.816l.626 4.223.157 2.815-.47-.313-.313-.312.313 2.972-.156.625c-.157 0-.313.313-.47.782l-.156.626c0 .626.313 1.251.626 1.251h.156c.157 0 .313.157.47.47.312.781.782 4.223.782 5.474l-.157.313c-.156-.313-.469-1.408-.469-2.66-.156-1.25-.47-2.502-.626-2.815l-.313-.156.157.313c.156.312.313 2.19.47 4.066.156 1.72.312 3.285.468 3.285s.313.939.313 2.19c0 1.564.157 2.19.47 2.346h.156a.336.336 0 00.313-.313l.156-.313h.157l.156.313-.313.47c-.313.312-.313.625-.313.938s.313.626.782.626h.47c.156 0 .156 0 .156.156v.156c-.156.157-.313.313-.626.313h-.938c-.782 0-1.408.157-1.408.626l.157.156.312-.313.47.313.312.47v-.313c0-.47.157-.626.313-.626l.782.47c.313.156.47.469.47 1.25v.94c0 1.25 0 1.72.312 1.72.157 0 .157 0 .157.156v.626h.156c.157 0 .313 0 .47.313l.156.156v-.156c0-.313.156-.47.313-.47s.313.157.313.47v.156c0 .156 0 .313-.157.313-.313 0-.313.156-.313.469s-.156.47-.469.47c-.156 0-.47.312-.47.781l-.156.47c.157 0 .157-.157.313-.313.313-.313.626-.626 1.095-.626l.47.313.156.313-.47.782c0 .469.313.938.626.938h.47c.156 0 .156 0 .156.157.156.312.156 1.095.313 1.72v.939l-.157-.157c-.156 0-.156.313-.156.939 0 1.095.156 1.407.782 1.564.47.156.782.47.782.626v.156l-.782-.313v.47c0 1.094 1.408 3.44 2.503 4.066.312.157.625.157.938.157l1.251-.157c.782-.313 2.19-1.095 2.972-2.033 1.564-1.408 3.91-4.38 3.91-4.85v-.312c0-.156.157-.47.47-.626.469-.312.782-.938.782-1.094v-.313c0-.157 0-.157.156-.157.782 0 1.251-.938 2.816-4.536.469-1.095.938-2.502.938-2.815 0-.47.156-.939.47-1.095l.312-.782.47-1.564c.938-2.503 1.25-3.598 1.25-4.067 0-.156.157-.938.47-1.72.47-1.252 1.564-6.1 2.19-10.01l.625-2.66c.313-.938.47-2.19.47-2.815s.156-1.252.312-1.564c.157-.157.313-.939.313-1.721.157-.938.313-2.659.626-4.067s.47-2.972.47-3.44l.312-1.252.626-6.413c.156-3.285.625-6.726.782-7.664.156-.782.156-1.72.156-1.877v-.47l.313-4.066c.313-2.346.47-4.693.47-5.318 0-.47.156-1.095.312-1.564l.313-.47-.313-.469c-.156-.156-.313-.47-.313-.938l.157-1.408c.312-2.19.469-3.754.469-6.882l.156-2.816c.157-.469.157-2.346.157-4.223v-3.597c.156 0 .156-1.252.156-2.503l-.156-1.72.156-.939-.156-5.474.156-.157-.156-.625c0-.313 0-.939.156-1.095l.156-.47-.312-1.25c-.313-.627-.47-1.409-.47-1.721l.157-.626c0-1.408-.626-4.223-1.251-6.257l-.157-.625c0-.157.157-.313.313-.313s.156 0 .156-.156l-.938-1.565h.313c.156 0 .156-.156.156-.312l-.47-3.442c0-.469-.156-.782-.312-.782s-.156-.156-.156-.312v-.157c0-.313 0-.625-.157-.782s-.156-.47-.156-.782c0-.47.156-.938.469-.938h.156c.157 0 .626.469.939 1.094s.782.939.938.939l.157-.156-.157-.47-.156-.625c.156 0 .782.625 1.408 1.72.469 1.095 1.095 1.72 1.251 1.72s.313.157.313.47l-.157.156-.312-.156c0 .156.156.156.312.313.313.313.782.469.939.469s.156-.156.156-.156c0-.157 0-.313-.313-.47s-.625-.938-.625-1.564c0-.156 0-.313.156-.313s.313-.156.313-.469c.156 0 .626.939 1.251 2.19.782 1.564 1.564 3.128 1.877 3.285.313.312.626 1.72.626 3.128a.86.86 0 00.47.782l.156.156h-.157c-.313 0-.469.47-.469.939.156.313.156.625.47.625l.468-.156.157.156c0 .313-.313.313-.47.313-.312 0-.469.157-.469.47l.157.625c0 .626 0 1.095-.157 1.095l-.156.157.313.625-.157.157-.312-.157h-.47l.157.313c0 .156.313.313.469.313s.313 0 .313.313l.156.938.157.313-.157.156c-.156 0-.156.157-.156.313l.313 1.251.312.313h-.156l-.313-.156-.156.313v.156l-.626-.938v.469c0 .47.313.938.939 1.251l.625.47h-.782c-.469 0-.625.156-.625.469 0 .156.156.469.625.625h.313c.156 0 .313-.156.313-.312s.156-.47.47-.47l.312-.156-.313.626c-.156.312-.782.625-1.095.625s-.469 0-.469.157l.156.156c.313.313.313.782.313 1.095s0 .626-.156.626-.313.469-.313.938l.156.626.313-1.252.313 1.252.156-.47c.157-.469.313-.625.47-.625v1.095c0 .625 0 1.251.156 1.407h.157v-1.095c0-.312.156-.469.312-.625l.313-.157-.156 1.095.313 2.816-.157.156-.313-.626c-.312-.312-.312-.469-.469-.469l.157.626-.157.156h-.313c-.313-.156-.313-.469-.313-.938v-.313c0-.313-.156-.47-.312-.47h-.157c-.156 0-.313.157-.313.94.157.938.313 1.563.626 1.563.156 0 .156-.156.313-.312v-.157l.156.626c0 .313 0 .625-.156.625h-.157c-.156 0-.156 0-.156.313v.313c0 .47-.156.782-.313.782s-.313.313-.313.47.157.312.313.312h.313v.47c-.313.625-.313.938-.313 1.407s0 .782.157 1.251l.312.783c0 .156 0 .156-.156.156s-.313.313-.313.782c0 .626 0 .939-.156.939s-.313.156-.313.312c0 .313.156.313.156.313h.157c.156 0 .156.47.156 2.19 0 .313-.156.47-.156.47h-.157c-.156 0-.312 0-.312.312a.336.336 0 01-.313.313l-.47-.157.157.313.782.157c.156 0 .156.469.313 1.251v.938l-.47-.938c-.156 0-.156.313-.156.782s0 .939.157.939.312.469.312.938c0 .313-.156.782-.312.782l-.157.156.157.783c.312.469.625.782.938.782.156 0 .313-.157.313-.47v-.312c0-.313 0-.783.156-.783.313 0 .313.313.313.626s0 .782-.156 1.251-.313.626-.782.626h-.313c-.157 0-.157.156-.313.939 0 .782 0 1.407.156 1.72v.313l-.156.47c-.156.156-.313.938-.313 1.876v.782c0 .782.157.939.939.939h.156v.156c0 .156-.156.313-.47.313-.156 0-.312.156-.312.313s-.313.313-.626.313c-.156 0-.313 0-.313.156l.313.47c.313.312.47.312.47.625l-1.095 2.19.156.625c.156.782.47 1.095.782 1.095.157 0 .313 0 .47-.313 0-.312 0-.625-.157-.625-.313-.157-.47-.313-.47-.626s.157-.313.314-.313h.156s.156-.156.156-.469v-.782c0-.939.157-2.033.47-2.033.156 0 .156.156.156.312v.313c-.156.626-.156 1.72-.156 2.503 0 .938 0 1.564.156 1.564.313 0 .47-.313.626-.626l.313-.469v1.095c0 .47 0 .782-.157.938s-.156.313-.313.313v-.625l-.469.625c-.156 0-.156-.156-.156-.469 0-.156 0-.156-.157-.156s-.313 1.564-.469 2.971c0 .782 0 1.877-.156 2.503v.939l.156-.157c0-.313.313-.626.47-.626.312 0 .468-.156.468-.625 0-.313.157-.626.313-.782h.157v.625c-.157.626-.313 1.565-.313 2.347l-.157 1.094-.312-1.72-.157.313c0 .313-.313.782-.469.938-.313 0-.47.626-.47 1.095v.626l-.156-.313c-.156-.313-.156-.47-.469-.47h-.47l.157-.312c.47-.47.782-.939.782-1.564l-.156-.47c-.157-.156-.157-.312-.313-.312l-.156.313h-.157v-.783c.157-.625.313-1.25.47-1.407h.156v1.251l.156-.313.313-2.19c0-1.407 0-1.564-.626-1.564-.312 0-.469.157-.469.47l-.313 2.971c0 .626-.156 1.408-.312 1.877 0 .626 0 .782.156.782l.626-.156.156.156c0 .157-.156.313-.47.47-.156.156-.312.469-.312.782v.469c0 .47 0 .782.156.782l.157-.47c.156 0 .156.47.156 1.408 0 .783 0 1.095.157 1.095l.156-1.25c.156-.47.313-.783.47-.783s.156 0 .156.156l-.157 2.034c-.156.782-.156 1.564-.313 1.72s-.156.626-.469 3.754l-.469 4.067-.156 3.597c0 .313 0 .626-.157.626s-.156.157-.156.47c0 .156-.157.625-.47.938l-.312.47h-.157l.47-1.409v-.156c0-.156-.157-.313-.47-.313-.469 0-.625 0-.625.47l.312 1.094-.156.157-.313-.313c-.156 0-.156.156-.313.625 0 .626 0 .939.47 1.408.312.313.469.626.469.782-.157 0-.313-.156-.47-.313l-.312-.469h-.157l.157.626c.156.313.47.626.625.626s.313.312.313.782c0 1.094 0 1.407.313 1.407.157 0 .313-.313.313-.625.156-.313.313-.626.47-.626h.156c.156 0 .156-.156.156-.313l-.156-.47h.312c.157 0 .313.314.313.627s-.156.625-.469.938l-.313.626.157.313c0 .156 0 .469-.157.625s-.156.47-.156.626l.156.313-.313.156c-.156 0-.312-.47-.312-.938l-.157-.782-.156.938-.47 1.72c-.156.313-.312.47-.625.47s-.626-.313-.782-.782h-.157v.625c0 .626-.156.939-.469.939l-.313.156v.157c0 .313.157.313.313.313.313 0 .47-.157.782-.626l.313-.626v.626c0 .313.156.47.313.47l.313-.157v.313l-.47.156c-.312 0-.469.626-.469 1.095l.157.782.156.47c0 .938-.47 2.658-.938 3.44l-.157.782v.313c0 .313-.156.47-.47.47-.468 0-.625.156-.625.469s0 .469.313.782c.156 0 .156.312.156.625s0 .939-.312 1.877c-.313 1.252-.626 2.19-.782 2.19s-.313.156-.313.47-.157.468-.313.468c-.156.157-.313.783-.313 1.565s-.156 1.407-.313 1.564c-.156 0-.313.313-.313.625s-.312.939-.625 1.252-.47.782-.47 1.407-.156 1.095-.312 1.252l-.157.156c0 .313.313.47.47.47l.469-.157-.157.156c-.156.313-.312.313-1.25.47-.314 0-.47.312-.47.625s-.157.626-.47.782l-.469.157c-.156 0-.156-.157-.312-.47 0-.312-.157-.469-.313-.469l-.313.47-.157.625h.939c.938 0 1.095.157 1.095.782 0 .47-.157.782-.313.782h-.156c-.157 0-.313.313-.47.626l-.156.626c0 .156 0 .156.156.156h.157c0 .156-.157.156-.47.313s-.625.625-.782 1.251c0 .47-.156.939-.312.939h-.47l.313.469.47.47-.783.468c-.625.47-.938.782-.938.939s.156.156.313.156.313-.156.313-.313v-.312l.156.312c0 .157-.313.47-.782.939-.626.626-1.095 1.095-1.095 1.251 0 .313-.313.626-.626.782l-.156.313c0 .156 0 .156.156.156s.782-.312 1.095-.625c.47-.47.782-.626.939-.626l.156.157-.782 1.407c-.626.939-1.095 1.564-1.251 1.564s-.47.313-.782.626c-1.095 1.095-3.129 1.564-5.475 1.564s-5.161-.469-7.977-1.407c-3.44-1.095-5.318-2.034-6.726-3.129-.469-.469-.938-.782-1.094-.782-.313 0-2.816-2.346-3.754-3.44l-1.564-1.878c-.939-1.095-1.877-2.972-3.442-6.882-1.564-3.598-2.19-6.1-3.284-10.793-1.877-8.915-2.503-12.356-2.503-13.92 0-.782.157-.939.313-1.252l.313-.469c0-.156-.157-.313-.47-.625s-.625-1.095-.781-2.347l-.47-4.692c-.156-1.564-.469-3.441-.782-4.223-.156-.626-.625-3.91-.938-7.195l-3.285-33.003c-.313-1.877-.626-5.006-.782-6.882-.313-1.877-.47-3.754-.626-4.224l-.469-3.128-2.346-11.73c-.156-.94-.313-1.409-.47-1.409v1.095c0 2.034 0 4.223-.312 5.006-.313.938-.47 4.535-.47 6.412v2.19c-.156.782-.312 2.972-.469 4.849 0 .626 0 1.564-.156 1.877l-.156 2.972-.313.156c-.313 0-.47-.469-.47-1.564-.156-.156-.156-.313-.312-.313h-.157c-.313.157-.469.313-.469.47s.156.312.313.312l.313.157c0 .156 0 .156-.157.156-.313.157-.469.313-.469.626 0 .156.156.156.313.156h.156c.47 0 .939.782.939 1.564v1.877c0 1.877-.313 3.91-.47 4.536-.156.313-.312 1.252-.312 1.877-.157.626-.313 1.095-.47 1.095-.312 0-.312-.313-.312-.938v-.47c0-.312 0-.312-.157-.312l-.156.156-.313-.626c-.313 0-.47.313-.47.626v.47c0 1.407-.312 4.379-.469 4.848 0 .156 0 .626.157.782l.156.157.47-.783.156.47c0 .469-.156.625-.47.625h-.156c-.313 0-.469.313-.469 1.564 0 .939-.156 1.877-.313 2.034s-.156.782-.156 1.251 0 .782.156.782l.626-.938.156.156-.625 1.564c-.47.782-.782 2.034-.939 2.972 0 1.408-.313 2.19-.938 2.19-.157 0-.157-.313-.157-.939l.157-.625-.157-.313c-.156 0-.469.313-.782.938l-.313.783c0 .156.157.156.313.156.313 0 .313 0 .313.156l-.47.626c0 .47.47.938.94.938h.469c.156 0 .312 0 .312.313l-.156.939v1.095l.156-.157.313-1.251c0-.47 0-.782.313-.782.156 0 .156.313.156.626v.312c0 .157.157.313.313.313.313 0 .313 0 .313.157l-.313.312c-.313.157-.625.47-.625.782v.939c.156 0 .312-.156.469-.47l.313-.312.156.156c0 .313-.156.626-.313.782 0 .157-.313.313-.625.313s-.626-.156-.626-.313l-.313.157-.313.625c0 .157.157.313.313.313l.313-.156c.313 0 .313 0 .313.313-.157.313-.313.313-.626.313-.156 0-.47 0-.782-.157-.156-.156-.156-.313-.156-.626v-.469c0-.469 0-.625-.157-.625l-.469.156c-.313.156-.47.313-.47.47l-.156 1.563-.313 1.408c0 .313.157.313.47.313.469 0 .625-.157.625-.626s.313-.782.782-.782l.626.157c.313.156.47.469.47 1.094l-.313 2.347c0 .156 0 .312.156.312h.47c.312 0 .468 0 .468.157l-.156.313c-.156.156-.156.469-.156.782v.469c0 .47-.157 1.095-.313 1.564-.157.313-.313 1.095-.313 1.564-.156.626-.47.782-1.095.939-.782 0-.782.156-.782 1.564 0 .938 0 1.877-.156 2.346s-.313 1.564-.313 2.346c-.157.939-.313 1.72-.47 1.877l-.156.47c0 .312.156.469.47.469h.156c.156 0 .156 0 .156.313l-.313 3.128c-.156 1.095-.469 2.033-.625 2.033-.47 0-.782.626-.782 1.251 0 .157.312.157.625.157l.313-.157v.47c-.156.313-.156.625-.156.782s-.47.313-.939.313c-.313 0-.47 0-.47.156h.157c.157.156.157.313.157.626v1.095l.625-.157c.157 0 .313.157.313.626l-.156 1.251c-.157.626-.313 2.033-.313 2.972-.156.938-.313 2.033-.626 2.19l-.156.469.156.313.157.469v.156c0 .313 0 .782.313 1.252l.156.625-.313.626.157.313v.47l-.157-.157c-.313-.157-.47-.313-.47-.626s-.155-.47-.312-.47c-.313 0-.626.47-.782.94l-.156 2.502c0 .47 0 .47.156.47l.47-.157c.156 0 .156.313.156.782l-.157.625.157.157.625-.47c.157 0 .157.157.157.313 0 .47-.157 1.252-.626 1.877s-.782 1.252-.782 1.408l.156.157c.157 0 .157-.157.313-.47l.47-.625v.469c0 .313-.157 1.095-.47 1.72l-.313.782h.157c.156 0 .156 0 .156.157l.157.156h.313v.782l.469-.312-.626 5.318c0 .469.157.782.313.782l.938-1.095.157.156-.782 2.972c-.313.782-.47 1.408-.47 1.877 0 .313.157.47.313.47h.313c.157 0 .313 0 .313.156l-.313.469c-.156.156-.156.313-.156.47 0 .312.156.468.469.468l.313-.156v.313c-.47.625-2.19 1.251-4.067 1.251zM175.68-11.743l-.156-.313c0-.157 0-.157.156-.157l.157.157zm1.877 3.753l.157-.312-.313-.157s-.157 0-.157.157c.157.312.157.312.313.312zm.939 1.565c.313 0 .469-.157.469-.313-.156-.313-.47-.47-.626-.47s-.312 0-.312.313.312.47.469.47zm1.72 1.564v-.313c0-.313-.156-.626-.313-.782-.156-.313-.156-.47-.312-.47 0 0 .156.157.156.47l.313.938c0 .157 0 .157.156.157zm-.938 6.57c.156 0 .156-.157.156-.47 0-.157-.156-.47-.313-.47s-.312.313-.312.47c.156.313.312.47.469.47zm1.251 2.815l.157-.313-.313-.47v.313c0 .313 0 .47.156.47zm-52.085 1.25v-.468h-.157c-.156 0-.156 0-.156.156 0 .313.156.313.313.313zm51.616 1.252l.156-.313-.313-.156v.156c0 .313 0 .313.157.313zm2.503.939s-.157 0-.157-.313c0-.157 0-.157.157-.157l.156.157zm-1.408.938c-.157 0-.157 0-.313-.313 0-.156.156-.156.156-.156h.157v.47zm1.877 2.972l-.313-.782.313-1.095c.156 0 .156.313.156.782 0 .782 0 1.095-.156 1.095zm-1.252-.156l-.156-.626c0-.313.156-.626.313-.626s.156.313.156.626c0 .47-.156.626-.313.626zm-1.72.938l.156-.313-.156-.313c0-.156 0-.156-.157-.156v.313c0 .313.157.469.157.469zm-64.755 3.128v-.469h-.156s-.157 0-.157.156c0 .313.157.313.313.313zm64.13 1.408l.156-.156c.156-.313.469-.47.625-.47l.157.157.156-.157c0-.313-.626-.625-1.095-.625l-.313.156-.156.313.156.47c.157.312.157.312.313.312zm-1.721 1.095c.156 0 .313-.157.313-.313s-.157-.313-.313-.313l-.313.313c0 .156.156.313.313.313zm1.877 0v-.47h-.157c-.156 0-.156 0-.156.157 0 .313.156.313.313.313zm3.284 2.815c-.156 0-.156-.156-.156-.625v-.782c0-1.095 0-1.721.156-1.721l.313 1.095v.782l-.156 1.095zm-7.351-1.877l.156-.312c0-.157-.156-.313-.469-.313l-.156.156.156.157c0 .156.157.312.313.312zm2.815 1.564l.157-.156c.156 0 .313-.313.313-.47v-.156h-.313c-.157.157-.313.313-.313.626zm1.877 1.877c.157 0 .157-.312.157-.625v-.626c0-.782-.157-1.251-.313-1.251 0 0-.157.313-.157 1.251 0 .626.157 1.251.313 1.251zm-65.224-1.564l.157-.313-.313-.156v.156c0 .313 0 .313.156.313zm68.04 1.72h-.157s-.156 0-.156-.156c0-.312.156-.625.313-.782h.156l.157.313c0 .313-.157.626-.313.626zm-2.816 1.096v-.626l-.156-.156v.312c0 .313 0 .47.156.47zm2.66.625c-.157 0-.157-.156-.157-.156v-.156c0-.157.156-.313.313-.313l.156.313a.336.336 0 01-.313.312zm-3.755.626c.157 0 .313-.156.47-.47 0-.156 0-.312-.157-.312-.313.156-.469.47-.469.626s0 .156.156.156zm-46.61 0a.336.336 0 00.312-.313l-.156-.313-.313.313c0 .157 0 .313.156.313zm49.739 3.128c-.157 0-.313-.313-.313-.938v-.47c0-.312 0-.469.156-.469s.313-.156.313-.312-.156-.47-.47-.626l-.156-.157.626-.312c.157.156.157.312.157 1.25v1.721c0 .313-.157.313-.313.313zm-2.19-1.877l.313-.312c0-.157-.157-.313-.47-.313-.156 0-.156 0-.156.156v.157c0 .156.156.312.313.312zm-65.38 0l-.157-.312c-.157 0-.157.156-.157.156l-.156.156h.47zm-12.67.626l-.157-.156s0-.157-.156-.157l-.156.313h.469zm30.97.938v-.469h-.157l-.156.157c0 .312.156.312.313.312zm-31.283.626l.156-.313-.156-.313c0-.156-.156-.156-.156-.156v.313c0 .313 0 .47.156.47zm77.268 1.72c.156 0 .156-.156.313-.781 0-.626 0-.782-.157-.939-.156 0-.312.313-.469.782l-.156.626.156.313h.313zm3.285-.156c-.157 0-.313-.156-.313-.625 0-.313.156-.626.313-.626s.313.313.313.626c0 .469-.157.625-.313.625zm0 .939c-.157 0-.157 0-.157-.313v-.157l.313.157zm.156 1.72h-.156v-.625h-.157c0-.313.157-.47.157-.47v.157c.156.313.156.782.156.938zm-7.82.157c.312 0 .312 0 .312-.157l-.469-.313-.156.157c0 .156.156.313.312.313zm-40.98.938l.156-.313-.157-.156c-.156 0-.156 0-.156.156 0 .313.156.313.156.313zm49.739.313s-.157 0-.157-.313c0-.156 0-.156.157-.156l.156.156zm.156 1.251c-.156 0-.313-.156-.313-.469l.157-.313.156.157v.625zm-.313 1.252s-.156-.157-.156-.47v-.312s.156 0 .156.156l.157.313zm-8.446 0l-.157-.313c-.156 0-.156.156-.156.156v.157h.313zm-61.158 1.564l.157-.313-.313-.157v.157c0 .313 0 .313.156.313zm68.353 3.128c-.157 0-.157-.782-.157-1.564 0-.939.157-1.72.313-1.72h.157c.156 0 .156.156.156.625-.156.313-.313 1.095-.313 1.564s0 .939-.156 1.095zm-72.106-.626l.312-.156c.157 0 .157-.156.157-.313v-.782l-.313.313-.156.626v.312zm1.407.626l.157-.313-.157-.156c-.156 0-.156 0-.156.156 0 .313.156.313.156.313zm2.346 1.564l-.312-.156v-.939c.156-.156.156-.313.312-.313v1.408zm-5.161-.313a.336.336 0 00.313-.313v-.156c-.157-.156-.157-.313-.313-.313h-.157l-.312.47c0 .156.156.312.469.312zm26.746.313c-.156 0-.156 0-.156-.313v-.156l.313.156zm46.611.313c-.156 0-.156 0-.156-.313v-.156l.313.156zm-71.011.313l.156-.157c.157 0 .313-.312.313-.469s-.156-.156-.156-.156h-.157c-.156.156-.312.313-.312.625zm24.557 1.251c-.157 0-.313-.313-.313-.782l.156-.626h.157c.156.157.313.47.313.782 0 .47 0 .626-.313.626zm-21.898-.313c-.156 0-.156-.156-.47-.469l-.312-.313c0-.156.156-.156.47-.156s.468.156.468.313zm21.272 0c-.156 0-.313 0-.313-.313 0-.156 0-.156.157-.156.156.156.156.313.156.47zm45.047.626c.313 0 .313-.157.313-.47 0-.156-.157-.469-.313-.469s-.313.313-.313.47c0 .312.157.469.313.469zm-66.475 1.095l-.313-.626v-.782c.156 0 .469.626.469 1.095zm-3.285.156l.313-.469c0-.156 0-.47-.157-.47s-.312.314-.312.47c0 .313 0 .47.156.47zm22.523 0l.313-.313v-.156c0-.156 0-.156-.156-.156s-.313.156-.313.312 0 .313.156.313zm-19.395.939c-.313 0-.47-.157-.47-.313l.157-.157.47.313c0 .157 0 .157-.157.157zm-2.815 1.251c.156 0 .156-.156.313-.313l.312-.626c0-.156-.156-.156-.156-.156h-.156c-.157.156-.313.47-.313.782v.313zm2.659 0s-.157 0-.157-.313c0-.156 0-.156.157-.156l.156.156zm69.76.313s-.156 0-.156-.313c0-.156 0-.156.156-.156l.156.156zm-48.175.313l.156-.313-.156-.313c0-.156 0-.156-.157-.156v.312c0 .313.157.47.157.47zm-24.87.625l.157-.469-.157-.313h-.156l-.157.313c.157.313.157.47.313.47zm26.277.939c-.156 0-.156-.157-.156-.47v-.312c0-.313 0-.47.156-.47 0-.156 0-.156.157-.156l.156.47c0 .312-.156.781-.313.938zm41.606-.939c.313 0 .313 0 .313-.156l-.313-.157-.156.313h.156zm1.877.626l.157-.313-.313-.156s-.157 0-.157.156c.157.313.157.313.313.313zm-70.386 1.251l.783-.313c.312-.156.625-.625.625-.938l-.156-.47-.157.314a.336.336 0 01-.312.312h-.626l-.157.626v.47zm3.442-.938l-.157-.157.157-.156c0-.156.156-.313.312-.313v.313zm64.91.938c.157 0 .314-.156.314-.469 0-.156-.157-.47-.313-.47s-.313.314-.313.47c0 .313.156.47.313.47zm2.347.157c.156 0 .156 0 .156-.157l-.312-.313-.47-.156-.312.156c0 .157.156.313.312.313zm1.72 1.407c-.156 0-.156-.156-.156-.469V52.7l.157-.47h.156zm-50.208 0l.313-.156.156-.626c-.156 0-.313.157-.313.47zm4.849.626v-.47l-.157-.468-.312-.157-.313.157c-.157.156-.313.156-.313.312h.313c.313 0 .625.157.625.47 0 .156 0 .156.157.156zm-26.903.156c.313-.156.47-.312.47-.625 0-.157-.157-.47-.314-.47l-.313.157-.156.626v.156c0 .156 0 .156.156.156h.157zm72.888-.469c-.156 0-.156 0-.156-.313v-.156l.313.156zm-70.073.626l-.156-.313c0-.156.156-.313.313-.313s.156 0 .156.157v.156a.336.336 0 01-.313.313zm23.306 0c0-.157 0-.313-.157-.47-.156 0-.156 0-.156.157 0 .313.156.313.313.313zm42.7 0l.157-.313-.156-.156c-.157 0-.157 0-.157.156 0 .313.157.313.157.313zm-46.61.313c.312 0 .469-.157.469-.313s-.157-.313-.313-.313l-.47.313c0 .156.157.313.313.313zm50.834 0c-.157 0-.313 0-.313-.313 0-.157 0-.157.156-.157.157.157.157.313.157.47zm-72.576.625c.157 0 .157-.156.157-.469-.157-.156-.157-.313-.313-.313l-.313.157zm1.251 1.72v-.156l.157-.938.156-.156c.157 0 .157 0 .157.156zm.782 1.721s-.156-.156-.156-.469v-.313c.156 0 .156 0 .156.157l.157.313zm-1.72.313a.336.336 0 01-.313-.313l.313-.469h.156l.157.313c0 .313-.157.47-.313.47zm.782 0v-.313l.313-.312.156.156-.156.156a.336.336 0 01-.313.313zm25.808.626v-.47h-.156l-.157.157c0 .313.157.313.313.313zm-30.344 1.877l.47-.313-.157-.156-.47-.939c-.156-.47-.156-.626-.312-.626v.783c0 .782.156 1.25.469 1.25zm5.318-1.251c-.156 0-.156 0-.156-.313v-.157l.312.157zm-3.128 1.72l-.157-1.251-.312-.626c-.157 0-.157 0-.157.157l-.156.312c0 .626.469 1.408.625 1.408h.157zm25.652-1.095l.156-.313-.156-.156c-.157 0-.157 0-.157.156 0 .313.157.313.157.313zm47.549 0c-.156 0-.156 0-.156-.313v-.156l.312.156zm-44.108 5.005l-.313-1.564-.157-1.564.157-1.251c.156 0 .156.625.313 1.877v2.502zm-1.408-1.25l.156-.157c0-.47 0-1.095-.156-1.564v-.313l-.157.156.157.782v1.095zm-29.875-.157c.156 0 .156 0 .156-.157s0-.313-.156-.469l-.156-.47v-.312c0-.156 0-.313-.157-.313v-.156l-.156.156s-.313.157-.313.47l-.156.625c0 .313 0 .313.312.47zm72.106.782c.157 0 .157-.313.313-.782 0-.47-.156-.782-.469-.782h-.156c-.313 0-.313 0-.313.156 0 .313.156.47.313.47s.156.312.156.469zm-79.927-.313l.157-.156c.156 0 .156-.157.156-.313v-.313h-.313c-.156.156-.156.313-.156.47zm80.71 0c.312 0 .312-.156.312-.313s0-.313-.156-.313l-.313.313c0 .157 0 .313.156.313zm-74.14 1.72l.625-.156c.313-.313.47-.47.47-.626v-.156c-.157 0-.157-.47-.157-.626V64.9a.336.336 0 00-.313-.313c-.312 0-.469.313-.469.626s0 .782-.156 1.095v.312zm76.173-.469a.336.336 0 01-.313-.313l.313-.469c.156 0 .313.157.313.313 0 .313-.157.47-.313.47zm-71.637.47c.156 0 .156-.157.156-.313v-.313l-.313-.47c-.156.157-.156.313-.156.626s.156.47.156.47h.157zm-11.262-.47c0-.156 0-.313-.156-.469-.157 0-.157 0-.157.156 0 .313.157.313.313.313zm36.913 3.128c.157 0 .157-.312.157-.782-.157-.782-.47-2.19-.626-2.346v1.408c.157.938.313 1.72.47 1.72zm2.66-2.033h-.157c-.156 0-.156-.156-.313-.313 0-.156.157-.469.313-.469s.313.156.313.313 0 .47-.157.47zm-27.216.313h-.157v-.47c0-.312.157-.469.313-.469v.313c0 .313 0 .47-.156.626zm-13.296.156s.157-.156.157-.469l.156-.313-.313-.156c-.156 0-.156.313-.156.47 0 .312 0 .468.156.468zm81.492 3.129v-1.408l-.313.313-.157.469v-.626c0-.313.157-.625.313-.782.313 0 .47-.469.47-1.095l-.157-.782c-.156 0-.313.47-.626 1.095l-.782 1.72c0 .157.157.314.47.626zm2.033-2.66s-.156-.156-.156-.469v-.469c.156 0 .156 0 .156.157v.782zm-73.358.157l.47-.313.156-.313-.313-.312c-.313.156-.47.312-.47.625zm25.965 0l-.313-.313c-.156 0-.156.157-.156.157v.156h.469zm-24.713.938c.156 0 .469-.156.469-.312l.156-.157-.313-.156c-.156 0-.312.156-.469.313 0 .156 0 .312.157.312zm-4.067.626l.156-.313-.313-.156v.156c0 .313 0 .313.157.313zm30.657 1.251l.156-.469-.156-.938-.313-.157-.156.313zm-2.034-.938c.157 0 .157-.156.157-.313l-.626-.313-.156.157.156.156c0 .157.313.313.47.313zm-26.277 1.095c.313 0 .626-.157.626-.47v-.156c-.157-.313-.47-.625-.626-.625l-.313-.157c0 .157 0 .157.313.313l.156.156c0 .157 0 .157-.312.313-.157.157-.313.157-.313.313v.156c.156.157.313.157.47.157zm30.97 1.564l.156-.156v-1.565l-.313-1.094h-.156l-.156.469zm42.231-1.408v-.156c0-.47.313-1.095.47-1.095v-.156l.156.156c0 .313-.156.782-.313.938zm-47.55-.625c.157 0 .314 0 .314-.157l-.313-.313h-.313v.157c0 .156.156.313.313.313zm-22.992.312a.336.336 0 00.313-.312l.156-.157-.156-.156-.313.313v.312zm-7.664 0c0-.156 0-.312-.157-.469-.156 0-.156 0-.156.157 0 .312.156.312.313.312zm77.737.313s-.156 0-.156-.313c0-.156 0-.156.156-.156l.156.156zm-2.659 5.318l.626-.313c.469-.156.625-.625.625-1.094v-.47l.157-1.251.156-.782-.313-.939c-.312-.469-.625-.625-.938-.625s-.626.156-.626.782c.157.313.313.47.47.47h.312c.313 0 .626 0 .626.156s-.156.312-.313.312-.313.47-.313.939c-.156.626-.469.938-.625.938s-.313.157-.313.313l.156.626c.157.625.157.938.313.938zm-41.293-4.692v-.313c0-.156-.156-.313-.313-.313s-.156.157-.156.313c.156.156.313.313.47.313zm-29.093.626l.157-.313-.313-.157v.157c0 .313 0 .313.156.313zm73.358 1.25c-.157 0-.313 0-.313-.156s.156-.625.47-.938l.312-.47v.47c-.156.313-.156.626-.156.782s-.157.313-.313.313zm-71.48.47c.312 0 .625-.626.938-1.251v-.47l-.157.313c-.313.313-.469.626-.625.626l-.313.156c.156.47 0 .626.156.626zm-13.14-1.095s-.156 0-.156-.313c0-.156 0-.156.157-.156l.156.156zm15.016 0s-.156 0-.156-.313c0-.156 0-.156.156-.156l.157.156zm26.747.313c.156 0 .313-.156.313-.313s0-.313-.157-.313l-.313.313v.157s0 .156.157.156zm1.251 1.564v-.938c0-.47-.156-.939-.313-.939s-.156.313-.156.782c0 .313 0 .782.156.939zm-34.41-.938v-.47h-.157s-.157 0-.157.157c0 .313.157.313.313.313zm75.703 2.346v-1.877l-.782.782.156-.782c0-.156.313-.47.626-.47s.47.47.47 1.096c0 .469-.157.782-.314 1.094zm-43.796-.782l.157-.313-.157-.313c0-.156 0-.156-.156-.156v.313c0 .312.156.469.156.469zm-31.439.313c0-.157 0-.47-.156-.626v-.156l-.156.312c0 .313.156.47.312.47zm4.85.938v-.47c.156-.312.156-.781.156-.938h.156l.313.157.156.313-.312.625c-.157.157-.313.313-.47.313zm29.248.157v-1.252l-.156-.156v.625c0 .47.156.783.156.783zm-.938 1.094s.156-.469.156-1.25c0-.627 0-1.096-.156-1.096s-.156.626-.156 1.252c0 .469 0 1.094.156 1.094zm38.79-.938l.157-.313-.313-.156-.156.156c.156.313.156.313.312.313zm-70.385.938a.336.336 0 00.312-.312v-.157c0-.313-.156-.625-.312-.625l-.313.469c0 .469.156.625.313.625zm30.344-.312l.156-.313-.313-.157v.157c0 .313.157.313.157.313zm40.98 0s-.157 0-.157-.313v-.157l.313.157zm-43.326.938c.312 0 .312 0 .312-.156l-.312-.157-.157.313h.157zm2.502.313v-.47h-.156s-.157 0-.157.157c0 .313.157.313.313.313zm-32.847.626s.157-.157.157-.47v-.156c0-.157 0-.313-.157-.313s-.156.313-.156.47c0 .312 0 .469.156.469zm2.816 0l.156-.313-.313-.157v.157c0 .313 0 .313.157.313zm69.134 0l.157-.313-.313-.157v.157c0 .313 0 .313.156.313zm3.441 1.25c-.156 0-.156-.156-.156-.625 0-.313 0-.625.156-.782h.157v.626c0 .469-.157.782-.157.782zm-39.728-.625s-.157 0-.157-.313c0-.156 0-.156.157-.156l.156.156zm-1.252 1.252c.157 0 .157-.47.157-.939 0-.626-.157-.782-.157-.782-.156 0-.313.313-.313.938 0 .47.157.783.313.783zm-32.377-.783l.156-.312-.156-.313h-.313c-.156.156-.156.313-.156.469l.312.156h.157zm-1.72.939c.156 0 .156-.156.156-.313v-.313c0-.156-.157-.469-.313-.469s-.157.156-.157.313v.313c0 .313.157.469.157.469h.156zm74.295-.47c-.156 0-.312 0-.312-.312 0-.157 0-.157.156-.157.156.157.156.313.156.47zm-38.79.314c-.156 0-.156-.157-.313-.47l.157-.313.156.157v.626zm40.667 0a.336.336 0 01-.313-.313l.313-.47h.157c.156 0 .156.157.156.313 0 .313 0 .47-.313.47zm-4.066 1.094l.312-.156.157-.47v-.312c-.157-.313-.313-.47-.47-.47s-.312.157-.312.47v.313c0 .313.156.625.313.625zm-70.073 0c.156 0 .312-.782.312-1.25 0 0-.156 0-.156.156l-.313.938zm69.134-.469v-.625l-.156-.157v.313c0 .313 0 .47.156.47zm-38.008 2.816l.156-.157v-1.408c-.156-.782-.313-1.094-.47-1.094-.155.156-.155.469-.155 1.25.156 1.096.312 1.409.469 1.409zm43.013-.313c-.313 0-.625-.157-.625-.47v-.156c0-.156.156-.313.312-.313.313 0 .47-.313.47-.625s.156-.626.313-.626.156.156.156.47c0 .468-.156 1.25-.313 1.563zm-40.198-1.095h-.156l-.157-.47c0-.312.157-.469.157-.469v.157c.156.156.156.47.156.782zm-.938.313h-.157v-.939c.157.313.157.626.157.939zm37.852-.157c0-.156 0-.313-.157-.469h-.156v.156c0 .313.156.313.313.313zm-.939.313v-.47h-.156l-.157.157c0 .313.157.313.313.313zm-72.888.939l.313-.313v-.157c0-.156 0-.156-.157-.156s-.313.156-.313.313 0 .313.157.313zm3.91 0a.336.336 0 00.313-.313l-.157-.313c-.156 0-.156.156-.312.313v.156zm33.472 1.25h-.156l-.156-.468c-.157-.313-.313-.782-.313-1.095v-.313l.313.626zm35.663-.938c.156 0 .312-.156.469-.469 0-.156 0-.313-.157-.313h-.156c-.313.157-.47.313-.47.47s.157.312.314.312zm-70.386.313c0-.156 0-.313-.157-.469h-.156v.156c0 .313.156.313.313.313zm-1.252 1.877l.47-.469-.157-.156c-.156 0-.156.156-.313.312l-.156.157zm-.156 1.252l.939-.47c0-.156 0-.156-.313-.156s-.626.156-.782.313v.156c0 .157 0 .157.156.157zm36.288 1.094s-.157-.312-.157-.782v-.625s.157 0 .157.156v1.251zm-38.321-.156l.313-.313c.156-.156.156-.313.156-.625v-.157s-.156 0-.156.157l-.313.782v.156zm73.983.938c-.156 0-.156-.156-.156-.312 0-.313.156-.626.312-.782l.313.156zm-71.95 0l.313-.156.156-.313-.313-.469c0-.156-.156-.156-.156-.156h-.156v.469c0 .47 0 .625.156.625zm70.386-.469c.313 0 .47 0 .47-.156s-.314-.313-.47-.313c-.313 0-.47.156-.47.313s.157.156.47.156zm2.502.47s-.156 0-.156-.313v-.157l.313.157zm-74.608.156c.156 0 .312-.157.312-.47 0 0 0-.156-.156-.156h-.313l-.156.313v.156c0 .157.156.157.313.157zm-.313 1.408l.156-.313-.313-.157v.157zm2.346 3.44l.313-.156.313-1.095c0-.469 0-.938-.157-.938s-.313-.313-.313-.626-.156-.782-.469-.782c0-.156-.156-.156-.156-.156l-.157.313.313 1.25c0 .157 0 .157-.156.157h-.313c-.313 0-.626.313-.626.626s.157.47.313.626l.313.156c.156 0 .156-.156.313-.313l.312-.313-.156.626c0 .313.156.626.313.626zm33.941-1.876c.157 0 .157-.157.157-.47 0-.156 0-.469-.157-.469l-.156.626c0 .156 0 .313.156.313zm2.034.782s-.157-.313-.157-.939v-.625s.157 0 .157.156v1.408zm33.629.156c.156 0 .312-.156.312-.625-.156-.313-.312-.626-.469-.626h-.469c-.156 0-.156.156-.156.313 0 .313 0 .625.312.782zm-72.42.939c.313 0 .626-.313.783-.782l.156-.47-.156-.469c-.313 0-.939 1.095-.939 1.564zm36.757-.313c.157 0 .313 0 .313-.157l-.469-.312c-.156 0-.156 0-.156.156s.156.313.312.313zm33.63 5.63a.336.336 0 00.312-.312v-.313l.157-.313.469.313v-.47c0-.312 0-.468.156-.625.313-.625.626-2.815.626-3.597v-.157h-.157c-.469 0-1.094 1.252-1.094 1.877l-.157.939c-.156.156-.156.625-.156.938 0 .47-.157.782-.313.939l-.313.469c0 .156.156.313.47.313zm-33.16-4.692l.156-.156v-.313h-.156l-.157.157zm-1.72 1.095c.312 0 .468-.156.468-.469l-.156-.156h-.313c-.156.156-.313.156-.313.312v.157zm2.502 1.564v-1.251l-.47-.938-.156.469c0 .625.313 1.72.626 1.72zm-39.103-.312l.469-.157c.469-.156.625-.313.625-.47s-.156-.312-.312-.312-.47.313-.626.47zm37.226.469a.336.336 0 00.313-.313c-.157-.313-.626-.782-.939-.782h-.313v.156h.157c.156 0 .313.157.469.47 0 .312.156.469.313.469zm-.157 2.346c.157 0 .157 0 .157-.313 0-.156.313-.47.625-.47.157 0 .157 0 .157-.156l-.313-.156-.626-.156c-.312 0-.625.156-.625.469l.313.626zm.939.626c.156 0 .156 0 .156-.157l.157-.313-.157-.156-.313-.156-.156.156zm32.221 2.659l.313-.47.156-.938c0-.313 0-.47.157-.47s.312-.156.312-.469.157-.469.313-.469.313-.156.313-.313-.313-.312-.626-.312c-.469 0-.782.782-.938 2.502l-.156.782zm-28.467-2.816v-.469l.313.156zm-1.095 1.095l.313-.313.156-.469-.156-.156c0-.157-.157-.157-.157-.157-.312 0-.469.47-.469.782v.157zm-34.88.156h-.47v-.156c0-.156.157-.156.157-.156l.313.156v.156zm54.588 1.877v-.156c0-.156.156-.626.47-.938l.312-.47-.156.626c-.313.626-.47.938-.626.938zm-18.613-.625c-.157 0-.157-.157-.157-.47 0-.156 0-.312.157-.312h.156c.157.156.157.313.157.469zm-39.885 2.19l.782-1.252c0-.156 0-.156-.157-.156a1.195 1.195 0 01-.313-.782c0-.157 0-.313-.156-.313l-.156.313-.157.938v.47c0 .469 0 .782.157.782zm70.698-.626c-.156 0-.156 0-.156-.156l.156-.313c0-.313.157-.47.313-.47s.313.157.47.313v.157c0 .156-.157.156-.314.313zm-70.542-.313l-.156-.313.156-.313c0 .157 0 .157.156.157v.313zm67.101 2.972c.156-.156.156-.47.156-.626s.157-.313.313-.313h.157l.782-.312.156-.313-.156-.157a.336.336 0 01-.313-.312l.156-.626c0-.47-.156-.626-.469-.626-.156 0-.47.157-.626.47-.156.469-.312 1.564-.312 2.19 0 .312 0 .625.156.625zm-64.442-.156v-.313c-.156-.313-.313-.626-.47-.626-.312-.156-.312-.313-.312-.313 0-.156 0-.156.156-.156l.626.313c.156.156.313.312.313.469zm-5.318 1.564c.156 0 .313-.157.47-.47l.156-.625h-.157l-.313.156c-.313.313-.469.47-.469.782zm72.42-.626h-.157c-.313 0-.313 0-.313-.156l.313-.157s.156 0 .156.157v.156zm-69.292.313l-.156-.157c0-.156 0-.156-.157-.156 0 0-.156 0-.156.156v.157h.47zm66.006 1.095c.157 0 .47-.313.47-.626l-.157-.626c-.156 0-.313.157-.469.313l-.156.47v.156c0 .156.156.313.312.313zm3.91-.157v-.313c.157-.312.157-.469.314-.469h.156l-.156.626zm-.781 1.877l-.157-.313c0-.156 0-.312.157-.312l.156.312zm-68.04 1.564l.156-.312-.156-.313c-.156 0-.156.156-.156.313zm62.722.626c.312 0 .625-.156.782-.313 0-.156-.157-.313-.47-.313-.156-.156-.312-.156-.469-.156l-.469.313.156.313zm-20.021 3.128l-.157-.313c0-.156.157-.312.313-.312s.157 0 .157.156v.156a.336.336 0 01-.313.313zm20.646 4.067l-.156-.156.313-.782.156-.313.157.313c0 .312-.157.625-.313.782zm-62.878.939a.336.336 0 00.313-.313l.157-.157-.313-.156a.336.336 0 00-.313.313z"
		fill="#fff" />
</svg>