<svg viewBox="0 -18 210 160.56">
	<path
		d="M41.874-18q2.003 0 3.504 1.502t1.502 3.503v95.819q0 2.002-1.502 3.504t-3.504 1.501H31.005q-2.002 0-3.503-1.501T26 82.824v-95.819q0-2.002 1.502-3.503T31.005-18h10.87zm52.2 85.379q2.145 0 3.575 1.501t1.43 3.504v10.44q0 2.002-1.43 3.504t-3.575 1.501H60.752q-2.145 0-3.575-1.501t-1.43-3.504v-10.44q0-2.002 1.43-3.504t3.575-1.501h33.322zM178.494-18q2.003 0 3.504 1.502t1.502 3.503v95.819q0 2.002-1.502 3.504t-3.503 1.501h-12.586q-2.574 0-4.147-2.002L91.83-9.99q-.858-1.144-1.001-2.575t.5-2.717 1.86-2.002T95.832-18h12.585q1.144 0 2.288.5t1.717 1.502L162.62 52.22v-65.214q0-2.002 1.43-3.503T167.626-18h10.869zm-71.792 69.361q2.002 0 3.504 1.43t1.502 3.576v26.457q0 2.002-1.502 3.504t-3.504 1.501H95.833q-2.002 0-3.504-1.501t-1.501-3.504V56.367q0-2.146 1.501-3.576t3.504-1.43h10.87z"
		fill="#fff" />
</svg>