<svg viewBox="-11 -4 190.523 139">
	<path
		d="M13.955-4c1.022 0 1.84.818 1.84 1.84v107.387h44.182c1.023 0 1.841.818 1.841 1.841v22.091c0 1.023-.818 1.841-1.84 1.841H-9.365c-1.022 0-1.636-.818-1.636-1.84V-2.16C-11-3.181-10.386-4-9.364-4h23.319zM1.273 8.477v110.046c0 .409.409 1.022 1.227 1.022h47.25c1.636 0 1.636-2.659 0-2.659H3.523V8.477c0-1.432-2.25-1.636-2.25 0zM107.994-2.159c0-1.023.818-1.841 1.841-1.841h23.523c1.023 0 1.84.818 1.84 1.84v131.32c0 1.022-.817 1.84-1.84 1.84h-22.705c-.818 0-1.636-.41-1.84-1.023L78.948 62.682v66.477c0 1.023-.818 1.841-1.841 1.841H53.79c-1.023 0-1.637-.818-1.637-1.84V-2.16c0-1.022.614-1.84 1.637-1.84h24.136c.818 0 1.227.614 1.432 1.023l28.636 66.068V-2.16zm14.728 120.886V8.273c0-1.432-2.66-1.841-2.66 0v105.136L66.676 7.864c-.614-.819-2.25-.819-2.25.409v110.25c0 1.84 2.455 1.84 2.455 0V13.59l53.181 105.34c.819 1.433 2.66 1.024 2.66-.204z"
		fill="#fff" />
</svg>