<svg width="417" height="417" viewBox="0 0 417 417" fill="none" xmlns="http://www.w3.org/2000/svg">
<path d="M208.333 0C167.129 0 126.85 12.2185 92.5896 35.1105C58.3294 58.0025 31.6268 90.5397 15.8585 128.608C0.0902675 166.676 -4.03543 208.564 4.00316 248.977C12.0417 289.39 31.8836 326.511 61.0195 355.647C90.1555 384.783 127.277 404.625 167.69 412.664C208.102 420.702 249.991 416.576 288.059 400.808C326.127 385.04 358.664 358.337 381.556 324.077C404.448 289.817 416.667 249.538 416.667 208.333C416.667 180.975 411.278 153.884 400.808 128.608C390.339 103.331 374.993 80.365 355.647 61.0194C336.302 41.6739 313.335 26.3282 288.059 15.8584C262.783 5.3887 235.692 0 208.333 0ZM274.583 315.667C273.806 317.613 272.621 319.37 271.108 320.821C269.595 322.271 267.789 323.381 265.812 324.076C263.834 324.77 261.731 325.034 259.644 324.848C257.556 324.663 255.532 324.032 253.708 323L197.146 279.042L160.854 312.542C160.012 313.164 159.027 313.564 157.989 313.706C156.952 313.848 155.895 313.727 154.917 313.354L161.875 251.083L162.083 251.271L162.229 250.042C162.229 250.042 264 157.375 268.146 153.437C272.354 149.5 270.958 148.646 270.958 148.646C271.208 143.854 263.438 148.646 263.438 148.646L128.583 235.396L72.4376 216.271C72.4376 216.271 63.8126 213.187 63.0001 206.375C62.1459 199.625 72.7084 195.958 72.7084 195.958L295.979 107.25C295.979 107.25 314.333 99.0833 314.333 112.625L274.583 315.667Z" fill="black"/>
</svg>
