<svg viewBox="0 0 60 60" xmlns="http://www.w3.org/2000/svg">
<path d="M34.2804 59.7675C43.247 58.3112 50.5463 53.5582 55.4464 45.9937C57.1544 43.3441 58.7606 39.3798 59.5129 35.9414C60.1229 33.1705 60.1636 27.3252 59.6146 24.5947C57.927 16.3627 53.3319 9.48594 46.4595 4.95534C44.1416 3.4384 42.6777 2.69004 40.3598 1.86078C36.883 0.606777 33.4875 0 29.9903 0C20.5561 0 11.7318 4.42947 5.97772 12.0344C3.27351 15.6144 1.17928 20.327 0.365982 24.7363C-0.121998 27.2847 -0.121998 32.7862 0.365982 35.3346C1.48426 41.4024 4.59512 47.1668 9.06824 51.5153C13.3177 55.6616 18.1568 58.2101 24.0939 59.4843C26.6558 60.0304 31.8202 60.172 34.2804 59.7675ZM37.5336 40.3304C37.2896 40.027 37.1066 39.7236 37.1066 39.6427C37.1066 39.5416 35.541 35.7998 33.6298 31.3299C29.116 20.7518 29.177 20.9136 29.177 20.4484C29.177 20.2259 29.3803 19.9023 29.6243 19.7405C30.0309 19.4573 31.3322 19.4169 39.7498 19.4169C48.1674 19.4169 49.4687 19.4573 49.8754 19.7405C50.1194 19.9023 50.3227 20.2259 50.3227 20.4281C50.3227 20.9945 49.3467 23.1182 48.9604 23.4216C48.6961 23.6036 46.9475 23.6643 41.8237 23.6643C38.1029 23.6643 35.0734 23.7452 35.114 23.8261C36.4153 27.1229 39.6482 34.5863 39.7498 34.5863C39.8515 34.5863 40.0548 34.202 40.2175 33.7368C40.7665 32.1996 43.613 25.6262 43.8366 25.343C44.1416 24.9992 47.2932 24.979 47.6388 25.3228C48.2081 25.8891 48.2284 25.8285 43.5927 36.6089C42.698 38.6719 41.8237 40.472 41.6407 40.6136C41.4374 40.7552 40.6445 40.8563 39.6278 40.8563C38.0622 40.8563 37.9199 40.8158 37.5336 40.3304ZM18.7261 40.4113C18.2992 39.8248 18.2992 37.6404 18.6855 37.0943C18.9498 36.7504 19.3158 36.6898 21.6133 36.6089L24.2565 36.5077L22.1826 31.2894C21.0237 28.4174 20.0274 26.0712 19.9257 26.0712C19.8241 26.0712 19.6411 26.3543 19.4988 26.7386C16.4082 34.6469 14.0497 40.4113 13.7854 40.6136C13.3177 40.9574 10.6542 40.9372 10.1865 40.5934C9.9832 40.4315 9.80021 40.0877 9.80021 39.8248C9.80021 39.5416 10.8575 36.7302 12.1588 33.575C13.4397 30.3995 15.2493 25.9903 16.1439 23.7654C17.0385 21.5406 17.9332 19.5989 18.1365 19.4775C18.4821 19.2146 20.9424 19.1135 21.5523 19.3359C21.715 19.4169 21.9997 19.7 22.142 20.0034C22.4673 20.6102 29.8683 38.9146 30.0716 39.5821C30.1733 39.8855 30.0919 40.1484 29.8073 40.4315C29.4006 40.8361 29.1567 40.8563 24.2159 40.8563C19.0921 40.8563 19.0311 40.8563 18.7261 40.4113Z" />
</svg>
