<svg xmlns="http://www.w3.org/2000/svg">

	<symbol id="bookshelf" viewBox="1 10 99 80">
		<rect x="2.821" y="84.558" width="94.858" height="3.773"></rect>
		<path d="M27.106,83.311H11.459V13.118h15.647V83.311z M13.354,81.407H25.21V14.999H13.354V81.407z"></path>
		<path d="M27.106,28.991H11.459v-8.052h15.647V28.991z M13.354,27.108H25.21v-4.268H13.354V27.108z"></path>
		<path d="M27.106,76.435H11.459v-8.058h15.647V76.435z M13.354,74.536H25.21v-4.273H13.354V74.536z"></path>
		<path d="M76.748,83.53L58.58,15.719l15.123-4.05L91.87,79.471L76.748,83.53z M60.909,17.066l17.176,64.135 l11.457-3.066l-17.176-64.14L60.909,17.066z"></path>
		<path d="M74.719,75.959l-2.09-7.784l15.123-4.055l2.089,7.793L74.719,75.959z M74.957,69.517l1.105,4.131 l11.448-3.069l-1.097-4.13L74.957,69.517z"></path>
		<path d="M62.451,30.144l-2.102-7.77l15.134-4.07l2.091,7.792L62.451,30.144z M62.689,23.708l1.107,4.119 l11.447-3.071l-1.109-4.119L62.689,23.708z"></path>
		<path d="M60.716,83.53L42.547,15.719l15.122-4.05l18.156,67.802L60.716,83.53z M44.875,17.066L62.05,81.201 l11.461-3.066l-17.2-64.14L44.875,17.066z"></path>
		<path d="M58.685,75.959l-2.09-7.784l15.123-4.045l2.089,7.783L58.685,75.959z M58.911,69.517l1.12,4.131 l11.444-3.069l-1.105-4.13L58.911,69.517z"></path>
		<path d="M46.404,30.144l-2.088-7.77l15.122-4.07l2.088,7.792L46.404,30.144z M46.645,23.708l1.107,4.119 l11.445-3.071l-1.097-4.119L46.645,23.708z"></path>
		<path d="M44.67,83.53L26.489,15.719l15.123-4.05l18.179,67.802L44.67,83.53z M28.828,17.066l17.189,64.135 l11.457-3.066l-17.197-64.14L28.828,17.066z"></path>
		<path d="M42.65,75.959l-2.1-7.784l15.12-4.055l2.101,7.793L42.65,75.959z M42.876,69.517l1.12,4.131 l11.435-3.069l-1.097-4.13L42.876,69.517z"></path>
		<path d="M30.372,30.144l-2.1-7.77l15.133-4.07l2.079,7.792L30.372,30.144z M30.598,23.708l1.107,4.119 l11.458-3.071l-1.106-4.119L30.598,23.708z"></path>
	</symbol>

	<symbol id="av_custom" viewBox="-30 -55 180 180">
		<g>
			<circle class="circle"
				r="80"
				stroke-width="3"
				fill="inherit"
				stroke="inherit"
				cx="60"
				cy="33"
			/>
			<polyline class="letter letter_1"
				stroke-opacity="1"
				stroke-width="12"
				stroke-linecap="round"
				shape-rendering="geometricPrecision"
				fill="none"
				stroke="inherit"
				points="
					10 60,
					60 60,
					35 10,
					17 42
				"
			/>
			<polyline class="letter letter_2"
				stroke-opacity="1"
				stroke-width="12"
				stroke-linecap="round"
				shape-rendering="geometricPrecision"
				fill="none"
				stroke="inherit"
				points="
					90 10,
					60 10,
					85 60,
					110 10
				"
			/>
		</g>
	</symbol>

	<symbol id="av" viewBox="0 0 60 60">
		<path d="M34.2804 59.7675C43.247 58.3112 50.5463 53.5582 55.4464 45.9937C57.1544 43.3441 58.7606 39.3798 59.5129 35.9414C60.1229 33.1705 60.1636 27.3252 59.6146 24.5947C57.927 16.3627 53.3319 9.48594 46.4595 4.95534C44.1416 3.4384 42.6777 2.69004 40.3598 1.86078C36.883 0.606777 33.4875 0 29.9903 0C20.5561 0 11.7318 4.42947 5.97772 12.0344C3.27351 15.6144 1.17928 20.327 0.365982 24.7363C-0.121998 27.2847 -0.121998 32.7862 0.365982 35.3346C1.48426 41.4024 4.59512 47.1668 9.06824 51.5153C13.3177 55.6616 18.1568 58.2101 24.0939 59.4843C26.6558 60.0304 31.8202 60.172 34.2804 59.7675ZM37.5336 40.3304C37.2896 40.027 37.1066 39.7236 37.1066 39.6427C37.1066 39.5416 35.541 35.7998 33.6298 31.3299C29.116 20.7518 29.177 20.9136 29.177 20.4484C29.177 20.2259 29.3803 19.9023 29.6243 19.7405C30.0309 19.4573 31.3322 19.4169 39.7498 19.4169C48.1674 19.4169 49.4687 19.4573 49.8754 19.7405C50.1194 19.9023 50.3227 20.2259 50.3227 20.4281C50.3227 20.9945 49.3467 23.1182 48.9604 23.4216C48.6961 23.6036 46.9475 23.6643 41.8237 23.6643C38.1029 23.6643 35.0734 23.7452 35.114 23.8261C36.4153 27.1229 39.6482 34.5863 39.7498 34.5863C39.8515 34.5863 40.0548 34.202 40.2175 33.7368C40.7665 32.1996 43.613 25.6262 43.8366 25.343C44.1416 24.9992 47.2932 24.979 47.6388 25.3228C48.2081 25.8891 48.2284 25.8285 43.5927 36.6089C42.698 38.6719 41.8237 40.472 41.6407 40.6136C41.4374 40.7552 40.6445 40.8563 39.6278 40.8563C38.0622 40.8563 37.9199 40.8158 37.5336 40.3304ZM18.7261 40.4113C18.2992 39.8248 18.2992 37.6404 18.6855 37.0943C18.9498 36.7504 19.3158 36.6898 21.6133 36.6089L24.2565 36.5077L22.1826 31.2894C21.0237 28.4174 20.0274 26.0712 19.9257 26.0712C19.8241 26.0712 19.6411 26.3543 19.4988 26.7386C16.4082 34.6469 14.0497 40.4113 13.7854 40.6136C13.3177 40.9574 10.6542 40.9372 10.1865 40.5934C9.9832 40.4315 9.80021 40.0877 9.80021 39.8248C9.80021 39.5416 10.8575 36.7302 12.1588 33.575C13.4397 30.3995 15.2493 25.9903 16.1439 23.7654C17.0385 21.5406 17.9332 19.5989 18.1365 19.4775C18.4821 19.2146 20.9424 19.1135 21.5523 19.3359C21.715 19.4169 21.9997 19.7 22.142 20.0034C22.4673 20.6102 29.8683 38.9146 30.0716 39.5821C30.1733 39.8855 30.0919 40.1484 29.8073 40.4315C29.4006 40.8361 29.1567 40.8563 24.2159 40.8563C19.0921 40.8563 19.0311 40.8563 18.7261 40.4113Z" />
	</symbol>

	<symbol id="github" viewBox="0 0 30 30">
		<path d="M15 0C6.7125 0 0 6.88228 0 15.3794C0 22.1848 4.29375 27.9328 10.2563 29.9706C11.0063 30.1052 11.2875 29.6438 11.2875 29.2401C11.2875 28.8748 11.2688 27.6637 11.2688 26.3757C7.5 27.087 6.525 25.4337 6.225 24.5686C6.05625 24.1264 5.325 22.7615 4.6875 22.3963C4.1625 22.1079 3.4125 21.3966 4.66875 21.3774C5.85 21.3582 6.69375 22.4924 6.975 22.9538C8.325 25.2799 10.4812 24.6263 11.3438 24.2226C11.475 23.2229 11.8688 22.5501 12.3 22.1656C8.9625 21.7811 5.475 20.4546 5.475 14.572C5.475 12.8995 6.05625 11.5153 7.0125 10.4388C6.8625 10.0543 6.3375 8.4779 7.1625 6.36323C7.1625 6.36323 8.41875 5.95952 11.2875 7.93962C12.4875 7.59358 13.7625 7.42056 15.0375 7.42056C16.3125 7.42056 17.5875 7.59358 18.7875 7.93962C21.6562 5.9403 22.9125 6.36323 22.9125 6.36323C23.7375 8.4779 23.2125 10.0543 23.0625 10.4388C24.0188 11.5153 24.6 12.8803 24.6 14.572C24.6 20.4738 21.0938 21.7811 17.7563 22.1656C18.3 22.6462 18.7688 23.5689 18.7688 25.0108C18.7688 27.0678 18.75 28.721 18.75 29.2401C18.75 29.6438 19.0312 30.1244 19.7812 29.9706C22.759 28.9398 25.3465 26.9776 27.1796 24.3602C29.0127 21.7427 29.9991 18.6018 30 15.3794C30 6.88228 23.2875 0 15 0Z" />
	</symbol>

	<symbol id="linkedin" viewBox="0 0 30 30">
		<path fill-rule="evenodd" clip-rule="evenodd" d="M3.7099e-07 2.50637C3.7099e-07 1.84164 0.264063 1.20413 0.734097 0.7341C1.20413 0.264066 1.84163 3.34134e-06 2.50636 3.34134e-06H27.4909C27.8203 -0.000534684 28.1466 0.0639073 28.4511 0.18964C28.7556 0.315372 29.0323 0.499926 29.2653 0.732735C29.4984 0.965543 29.6833 1.24204 29.8093 1.54638C29.9354 1.85073 30.0002 2.17695 30 2.50637V27.4909C30.0004 27.8204 29.9357 28.1467 29.8099 28.4512C29.684 28.7557 29.4993 29.0324 29.2664 29.2654C29.0335 29.4985 28.7569 29.6833 28.4525 29.8093C28.148 29.9354 27.8218 30.0002 27.4923 30H2.50636C2.17711 30 1.85108 29.9351 1.5469 29.8091C1.24273 29.683 0.96637 29.4983 0.733615 29.2654C0.50086 29.0325 0.316271 28.7561 0.190394 28.4518C0.0645181 28.1476 -0.000178767 27.8215 3.7099e-07 27.4923V2.50637ZM11.8745 11.4382H15.9368V13.4782C16.5232 12.3055 18.0232 11.25 20.2773 11.25C24.5986 11.25 25.6227 13.5859 25.6227 17.8718V25.8109H21.2495V18.8482C21.2495 16.4073 20.6632 15.03 19.1741 15.03C17.1082 15.03 16.2491 16.515 16.2491 18.8482V25.8109H11.8745V11.4382ZM4.37455 25.6241H8.74909V11.25H4.37455V25.6227V25.6241ZM9.375 6.56182C9.38325 6.93637 9.3166 7.3088 9.17896 7.65725C9.04133 8.0057 8.83548 8.32314 8.5735 8.59096C8.31152 8.85877 7.99868 9.07156 7.65335 9.21683C7.30802 9.3621 6.93714 9.43694 6.5625 9.43694C6.18786 9.43694 5.81698 9.3621 5.47165 9.21683C5.12632 9.07156 4.81348 8.85877 4.5515 8.59096C4.28952 8.32314 4.08367 8.0057 3.94604 7.65725C3.8084 7.3088 3.74175 6.93637 3.75 6.56182C3.76619 5.82662 4.06962 5.12699 4.5953 4.61276C5.12098 4.09852 5.82712 3.81057 6.5625 3.81057C7.29788 3.81057 8.00402 4.09852 8.5297 4.61276C9.05538 5.12699 9.35881 5.82662 9.375 6.56182Z" />
	</symbol>

	<symbol id="int" viewBox="0 0 30 30">
		<path d="M8.81591 0.09C10.4155 0.0163636 10.9255 0 15 0C19.0745 0 19.5845 0.0177273 21.1827 0.09C22.7809 0.162273 23.8718 0.417273 24.8264 0.786818C25.8259 1.16455 26.7327 1.755 27.4827 2.51864C28.2464 3.26727 28.8355 4.17273 29.2118 5.17364C29.5827 6.12818 29.8364 7.21909 29.91 8.81455C29.9836 10.4168 30 10.9268 30 15C30 19.0745 29.9823 19.5845 29.91 21.1841C29.8377 22.7795 29.5827 23.8705 29.2118 24.825C28.8354 25.826 28.2454 26.733 27.4827 27.4827C26.7327 28.2464 25.8259 28.8355 24.8264 29.2118C23.8718 29.5827 22.7809 29.8364 21.1855 29.91C19.5845 29.9836 19.0745 30 15 30C10.9255 30 10.4155 29.9823 8.81591 29.91C7.22045 29.8377 6.12955 29.5827 5.175 29.2118C4.17398 28.8354 3.26703 28.2453 2.51727 27.4827C1.75415 26.7336 1.16361 25.8271 0.786818 24.8264C0.417273 23.8718 0.163636 22.7809 0.09 21.1855C0.0163636 19.5832 0 19.0732 0 15C0 10.9255 0.0177273 10.4155 0.09 8.81727C0.162273 7.21909 0.417273 6.12818 0.786818 5.17364C1.16417 4.17284 1.75516 3.26634 2.51864 2.51727C3.26733 1.75432 4.17337 1.16379 5.17364 0.786818C6.12818 0.417273 7.21909 0.163636 8.81455 0.09H8.81591ZM21.0614 2.79C19.4795 2.71773 19.005 2.70273 15 2.70273C10.995 2.70273 10.5205 2.71773 8.93864 2.79C7.47545 2.85682 6.68182 3.10091 6.15273 3.30682C5.45318 3.57955 4.95273 3.90273 4.42773 4.42773C3.93006 4.91189 3.54706 5.50129 3.30682 6.15273C3.10091 6.68182 2.85682 7.47545 2.79 8.93864C2.71773 10.5205 2.70273 10.995 2.70273 15C2.70273 19.005 2.71773 19.4795 2.79 21.0614C2.85682 22.5245 3.10091 23.3182 3.30682 23.8473C3.54682 24.4977 3.93 25.0882 4.42773 25.5723C4.91182 26.07 5.50227 26.4532 6.15273 26.6932C6.68182 26.8991 7.47545 27.1432 8.93864 27.21C10.5205 27.2823 10.9936 27.2973 15 27.2973C19.0064 27.2973 19.4795 27.2823 21.0614 27.21C22.5245 27.1432 23.3182 26.8991 23.8473 26.6932C24.5468 26.4205 25.0473 26.0973 25.5723 25.5723C26.07 25.0882 26.4532 24.4977 26.6932 23.8473C26.8991 23.3182 27.1432 22.5245 27.21 21.0614C27.2823 19.4795 27.2973 19.005 27.2973 15C27.2973 10.995 27.2823 10.5205 27.21 8.93864C27.1432 7.47545 26.8991 6.68182 26.6932 6.15273C26.4205 5.45318 26.0973 4.95273 25.5723 4.42773C25.0881 3.9301 24.4987 3.54711 23.8473 3.30682C23.3182 3.10091 22.5245 2.85682 21.0614 2.79ZM13.0841 19.6241C14.1541 20.0695 15.3455 20.1296 16.4549 19.7942C17.5643 19.4587 18.5228 18.7485 19.1667 17.7849C19.8107 16.8212 20.1001 15.6639 19.9855 14.5106C19.871 13.3573 19.3596 12.2795 18.5386 11.4614C18.0153 10.9384 17.3826 10.5379 16.6859 10.2888C15.9893 10.0397 15.246 9.94822 14.5098 10.0208C13.7735 10.0935 13.0625 10.3284 12.4279 10.7088C11.7933 11.0892 11.251 11.6056 10.84 12.2207C10.4289 12.8359 10.1593 13.5345 10.0507 14.2663C9.94206 14.9981 9.99702 15.7449 10.2116 16.453C10.4263 17.161 10.7952 17.8127 11.2919 18.361C11.7886 18.9093 12.4007 19.3407 13.0841 19.6241ZM9.54818 9.54818C10.2641 8.83224 11.1141 8.26432 12.0495 7.87686C12.9849 7.48939 13.9875 7.28996 15 7.28996C16.0125 7.28996 17.0151 7.48939 17.9505 7.87686C18.8859 8.26432 19.7359 8.83224 20.4518 9.54818C21.1678 10.2641 21.7357 11.1141 22.1231 12.0495C22.5106 12.9849 22.71 13.9875 22.71 15C22.71 16.0125 22.5106 17.0151 22.1231 17.9505C21.7357 18.8859 21.1678 19.7359 20.4518 20.4518C19.0059 21.8977 17.0448 22.71 15 22.71C12.9552 22.71 10.9941 21.8977 9.54818 20.4518C8.10227 19.0059 7.28997 17.0448 7.28997 15C7.28997 12.9552 8.10227 10.9941 9.54818 9.54818ZM24.42 8.43818C24.5974 8.27082 24.7394 8.06956 24.8377 7.84633C24.9359 7.62309 24.9884 7.38241 24.9919 7.13854C24.9955 6.89467 24.9501 6.65257 24.8584 6.42656C24.7667 6.20055 24.6306 5.99524 24.4581 5.82278C24.2857 5.65032 24.0804 5.51421 23.8544 5.42252C23.6283 5.33083 23.3862 5.28542 23.1424 5.28898C22.8985 5.29253 22.6578 5.34498 22.4346 5.44322C22.2113 5.54146 22.0101 5.68349 21.8427 5.86091C21.5172 6.20595 21.339 6.66426 21.346 7.13854C21.3529 7.61283 21.5444 8.06574 21.8798 8.40115C22.2152 8.73656 22.6681 8.92804 23.1424 8.93495C23.6167 8.94187 24.075 8.76367 24.42 8.43818Z" />
	</symbol>

	<symbol id="wave" viewBox="0 0 1200 120">
		<path d="M1200,0H0V120H281.94C572.9,116.24,602.45,3.86,602.45,3.86h0S632,116.24,923,120h277Z"></path>
	</symbol>

	<symbol id="opened_book" viewBox="0 0 1600 150">
		<path d="M1600 150H800H0V-1.19209e-06H375.92C763.867 4.7 800 68.8636 800 68.8636C800 68.8636 842.667 4.7 1230.67 -1.19209e-06H1600V150Z" />
	</symbol>

	<symbol id="telegram" viewBox="0 0 417 350" stroke="none">
		<path d="M388.846 2.29947L19.471 144.737C-5.73737 154.862 -5.59153 168.924 14.846 175.195L109.679 204.779L329.096 66.3411C339.471 60.0286 348.95 63.4245 341.158 70.3411L163.388 230.779H163.346L163.388 230.799L156.846 328.549C166.429 328.549 170.658 324.154 176.033 318.966L222.096 274.174L317.908 344.945C335.575 354.674 348.263 349.674 352.658 328.591L415.554 32.1745C421.992 6.36198 405.7 -5.32553 388.846 2.29947V2.29947Z" />
	</symbol>

	<symbol id="telegram2" viewBox="0 0 417 417" stroke="none">
		<path d="M208.333 0C167.129 0 126.85 12.2185 92.5896 35.1105C58.3294 58.0025 31.6268 90.5397 15.8585 128.608C0.0902675 166.676 -4.03543 208.564 4.00316 248.977C12.0417 289.39 31.8836 326.511 61.0195 355.647C90.1555 384.783 127.277 404.625 167.69 412.664C208.102 420.702 249.991 416.576 288.059 400.808C326.127 385.04 358.664 358.337 381.556 324.077C404.448 289.817 416.667 249.538 416.667 208.333C416.667 180.975 411.278 153.884 400.808 128.608C390.339 103.331 374.993 80.365 355.647 61.0194C336.302 41.6739 313.335 26.3282 288.059 15.8584C262.783 5.3887 235.692 0 208.333 0ZM274.583 315.667C273.806 317.613 272.621 319.37 271.108 320.821C269.595 322.271 267.789 323.381 265.812 324.076C263.834 324.77 261.731 325.034 259.644 324.848C257.556 324.663 255.532 324.032 253.708 323L197.146 279.042L160.854 312.542C160.012 313.164 159.027 313.564 157.989 313.706C156.952 313.848 155.895 313.727 154.917 313.354L161.875 251.083L162.083 251.271L162.229 250.042C162.229 250.042 264 157.375 268.146 153.437C272.354 149.5 270.958 148.646 270.958 148.646C271.208 143.854 263.438 148.646 263.438 148.646L128.583 235.396L72.4376 216.271C72.4376 216.271 63.8126 213.187 63.0001 206.375C62.1459 199.625 72.7084 195.958 72.7084 195.958L295.979 107.25C295.979 107.25 314.333 99.0833 314.333 112.625L274.583 315.667Z" />
	</symbol>

	<symbol id="maximize" viewBox="0 0 358 358" fill="none">
		<path d="M8.33331 93.6668V51.0002C8.33331 39.6843 12.8285 28.8318 20.8301 20.8303C28.8316 12.8287 39.6841 8.3335 51 8.3335H93.6666M8.33331 264.334V307C8.33331 318.316 12.8285 329.169 20.8301 337.17C28.8316 345.172 39.6841 349.667 51 349.667H93.6666M264.333 8.3335H307C318.316 8.3335 329.168 12.8287 337.17 20.8303C345.171 28.8318 349.667 39.6843 349.667 51.0002V93.6668M264.333 349.667H307C318.316 349.667 329.168 345.172 337.17 337.17C345.171 329.169 349.667 318.316 349.667 307V264.334" stroke-width="30" stroke-linecap="round" stroke-linejoin="round"/>
	</symbol>

	<symbol id="cross" viewBox="0 0 671 671" stroke="none">
		<path d="M18.7383 18.7383C30.7401 6.74018 47.0158 0 63.9863 0C80.9568 0 97.2326 6.74018 109.234 18.7383L335.538 245.042L561.842 18.7383C573.913 7.08021 590.079 0.629373 606.86 0.775192C623.641 0.921011 639.693 7.65182 651.559 19.5179C663.425 31.3841 670.156 47.4361 670.301 64.2167C670.447 80.9973 663.996 97.1638 652.338 109.234L426.034 335.538L652.338 561.842C663.996 573.913 670.447 590.079 670.301 606.86C670.156 623.641 663.425 639.693 651.559 651.559C639.693 663.425 623.641 670.156 606.86 670.301C590.079 670.447 573.913 663.996 561.842 652.338L335.538 426.034L109.234 652.338C97.1638 663.996 80.9973 670.447 64.2167 670.301C47.4361 670.156 31.3841 663.425 19.5179 651.559C7.65182 639.693 0.921011 623.641 0.775192 606.86C0.629373 590.079 7.08021 573.913 18.7383 561.842L245.042 335.538L18.7383 109.234C6.74018 97.2326 0 80.9568 0 63.9863C0 47.0158 6.74018 30.7401 18.7383 18.7383V18.7383Z" />
	</symbol>

	<symbol id="download" viewBox="0 0 18 18" fill="none">
		<path d="M9 13C9 8.31371 9 1 9 1M9 13C7.75032 11.4379 5.8 9 5.8 9M9 13C10.2497 11.4379 12.2 9 12.2 9M1 13L1.4968 15.485C1.58332 15.9177 1.78306 16.3018 2.06426 16.5763C2.34547 16.8508 2.69201 16.9999 3.0488 17H14.9512C15.308 16.9999 15.6545 16.8508 15.9357 16.5763C16.2169 16.3018 16.4167 15.9177 16.5032 15.485L17 13" stroke-width="2" stroke-linecap="round" stroke-linejoin="round"/>
	</symbol>

	<symbol id="" viewBox="">

	</symbol>

</svg>